<?xml version="1.0" encoding="UTF-8"?>
<svg xmlns="http://www.w3.org/2000/svg" xmlns:xlink="http://www.w3.org/1999/xlink" width="192px" height="192px" viewBox="0 0 192 192" version="1.1">
<g id="surface1">
<path style=" stroke:none;fill-rule:nonzero;fill:rgb(78.431374%,94.509804%,77.64706%);fill-opacity:1;" d="M 142.480469 11.589844 C 143.425781 12.09375 144.390625 12.550781 145.359375 13.007812 C 146.882812 13.761719 148.15625 14.699219 149.472656 15.769531 C 150.488281 16.589844 151.53125 17.363281 152.578125 18.140625 C 154.445312 19.535156 156.25 20.984375 158.035156 22.484375 C 158.984375 23.269531 158.984375 23.269531 160.042969 23.898438 C 161.707031 25.070312 163.078125 26.46875 164.507812 27.914062 C 164.792969 28.195312 165.078125 28.476562 165.371094 28.765625 C 165.644531 29.042969 165.917969 29.316406 166.199219 29.601562 C 166.445312 29.847656 166.695312 30.09375 166.949219 30.351562 C 167.675781 31.183594 168.199219 32.046875 168.75 33 C 169.175781 33.488281 169.613281 33.964844 170.0625 34.429688 C 171.722656 36.25 173.074219 38.234375 174.429688 40.28125 C 175.320312 41.621094 176.214844 42.75 177.375 43.875 C 179.320312 46.632812 180.761719 49.757812 182.222656 52.789062 C 182.488281 53.34375 182.761719 53.898438 183.035156 54.449219 C 194.359375 77.296875 194.546875 104.597656 186.816406 128.53125 C 185.667969 131.933594 184.199219 135.15625 182.625 138.375 C 182.367188 138.917969 182.109375 139.457031 181.851562 140 C 178.089844 147.789062 178.089844 147.789062 175.125 150.75 C 174.527344 151.570312 173.941406 152.394531 173.367188 153.234375 C 171.945312 155.269531 170.433594 157.132812 168.714844 158.929688 C 167.976562 159.722656 167.976562 159.722656 167.484375 160.640625 C 166.878906 161.621094 166.246094 162.351562 165.4375 163.164062 C 165.160156 163.441406 164.886719 163.714844 164.601562 164 C 164.316406 164.285156 164.027344 164.566406 163.734375 164.859375 C 163.449219 165.144531 163.167969 165.433594 162.875 165.726562 C 162.597656 166.003906 162.324219 166.277344 162.039062 166.5625 C 161.789062 166.8125 161.539062 167.058594 161.28125 167.316406 C 160.445312 168.046875 159.582031 168.570312 158.625 169.125 C 157.914062 169.699219 157.210938 170.285156 156.515625 170.882812 C 154.417969 172.660156 152.246094 174.292969 150 175.875 C 149.734375 176.070312 149.464844 176.265625 149.191406 176.46875 C 146.878906 178.132812 144.496094 179.503906 141.960938 180.796875 C 141.601562 180.984375 141.242188 181.171875 140.871094 181.363281 C 130.066406 186.9375 118.550781 190.191406 106.5 191.625 C 106.199219 191.664062 105.902344 191.703125 105.59375 191.742188 C 86.378906 193.988281 66.421875 189.542969 49.519531 180.410156 C 48.574219 179.90625 47.609375 179.449219 46.640625 178.992188 C 45.117188 178.238281 43.84375 177.300781 42.527344 176.230469 C 41.503906 175.402344 40.457031 174.621094 39.398438 173.835938 C 37.679688 172.550781 35.992188 171.238281 34.332031 169.882812 C 33.796875 169.460938 33.257812 169.039062 32.707031 168.640625 C 30.71875 167.199219 28.984375 165.597656 27.257812 163.851562 C 26.863281 163.460938 26.863281 163.460938 26.460938 163.0625 C 25.179688 161.777344 24.132812 160.597656 23.25 159 C 22.824219 158.511719 22.386719 158.035156 21.9375 157.570312 C 20.277344 155.75 18.925781 153.765625 17.570312 151.71875 C 16.679688 150.378906 15.785156 149.25 14.625 148.125 C 12.679688 145.367188 11.238281 142.242188 9.777344 139.210938 C 9.511719 138.65625 9.238281 138.101562 8.964844 137.550781 C -2.359375 114.703125 -2.546875 87.402344 5.1875 63.46875 C 6.332031 60.066406 7.800781 56.84375 9.375 53.625 C 9.632812 53.082031 9.890625 52.542969 10.148438 52 C 13.910156 44.210938 13.910156 44.210938 16.875 41.25 C 17.472656 40.429688 18.058594 39.605469 18.632812 38.765625 C 20.054688 36.730469 21.566406 34.867188 23.285156 33.070312 C 24.023438 32.277344 24.023438 32.277344 24.515625 31.359375 C 25.121094 30.378906 25.753906 29.648438 26.5625 28.835938 C 26.839844 28.558594 27.113281 28.285156 27.398438 28 C 27.683594 27.714844 27.972656 27.433594 28.265625 27.140625 C 28.550781 26.855469 28.832031 26.566406 29.125 26.273438 C 29.402344 25.996094 29.675781 25.722656 29.960938 25.4375 C 30.210938 25.1875 30.460938 24.941406 30.71875 24.683594 C 31.554688 23.953125 32.417969 23.429688 33.375 22.875 C 34.085938 22.300781 34.789062 21.714844 35.484375 21.117188 C 37.582031 19.339844 39.753906 17.707031 42 16.125 C 42.265625 15.929688 42.535156 15.734375 42.808594 15.53125 C 45.121094 13.867188 47.503906 12.496094 50.039062 11.203125 C 50.398438 11.015625 50.757812 10.828125 51.128906 10.636719 C 61.933594 5.0625 73.449219 1.808594 85.5 0.375 C 85.800781 0.335938 86.097656 0.296875 86.40625 0.257812 C 105.621094 -1.988281 125.578125 2.457031 142.480469 11.589844 Z M 142.480469 11.589844 "/>
<path style=" stroke:none;fill-rule:nonzero;fill:rgb(15.686275%,21.176471%,11.372549%);fill-opacity:1;" d="M 116.953125 67.78125 C 117.449219 67.785156 117.449219 67.785156 117.957031 67.789062 C 123.292969 67.878906 127.699219 69.359375 131.625 73.125 C 134.441406 76.652344 135.375 79.488281 135.375 84 C 132.28125 84 129.1875 84 126 84 C 125.628906 82.328125 125.628906 82.328125 125.25 80.625 C 123.894531 78.382812 122.148438 77.5 119.625 76.875 C 116.746094 76.507812 114.207031 76.753906 111.75 78.375 C 110.054688 79.777344 109.445312 81.503906 109.125 83.625 C 109.007812 85.566406 109 87.503906 109 89.445312 C 108.996094 90.011719 108.992188 90.578125 108.992188 91.148438 C 108.988281 92.332031 108.984375 93.515625 108.984375 94.699219 C 108.984375 96.210938 108.976562 97.71875 108.964844 99.226562 C 108.953125 100.394531 108.953125 101.566406 108.953125 102.734375 C 108.953125 103.292969 108.949219 103.847656 108.945312 104.402344 C 108.914062 107.5625 108.980469 110.453125 110.625 113.25 C 111.5 114.203125 111.5 114.203125 112.5 114.75 C 112.703125 114.882812 112.90625 115.015625 113.117188 115.152344 C 114.421875 115.664062 115.710938 115.644531 117.09375 115.640625 C 117.378906 115.640625 117.664062 115.640625 117.957031 115.640625 C 120.128906 115.601562 121.539062 115.199219 123.375 114 C 123.621094 114 123.871094 114 124.125 114 C 125.113281 112.09375 125.640625 110.527344 126 108.375 C 129.21875 108.375 132.433594 108.375 135.75 108.375 C 135.75 113.484375 134.421875 116.210938 131.0625 119.90625 C 130.753906 120.183594 130.445312 120.464844 130.125 120.75 C 129.964844 120.929688 129.804688 121.109375 129.636719 121.292969 C 126.832031 124.167969 122.492188 124.941406 118.628906 125.058594 C 113.183594 125.074219 107.996094 124.125 103.921875 120.210938 C 99.40625 115.296875 98.878906 110.097656 98.886719 103.679688 C 98.886719 103.082031 98.882812 102.484375 98.882812 101.886719 C 98.878906 100.636719 98.878906 99.390625 98.882812 98.144531 C 98.882812 96.554688 98.878906 94.96875 98.867188 93.382812 C 98.863281 92.148438 98.863281 90.917969 98.863281 89.683594 C 98.863281 89.101562 98.863281 88.515625 98.859375 87.929688 C 98.824219 81.894531 99.714844 77.035156 103.921875 72.46875 C 107.574219 68.988281 112.03125 67.726562 116.953125 67.78125 Z M 116.953125 67.78125 "/>
<path style=" stroke:none;fill-rule:nonzero;fill:rgb(15.294118%,20.784314%,10.980392%);fill-opacity:1;" d="M 88.125 69 C 88.125 69.246094 88.125 69.496094 88.125 69.75 C 88.496094 69.855469 88.496094 69.855469 88.875 69.960938 C 91.996094 71.457031 94.304688 74.234375 95.625 77.398438 C 96.4375 79.75 96.796875 81.910156 96.808594 84.40625 C 96.8125 84.792969 96.8125 84.792969 96.816406 85.191406 C 96.820312 86.050781 96.824219 86.90625 96.828125 87.761719 C 96.828125 88.207031 96.828125 88.207031 96.828125 88.65625 C 96.835938 90.21875 96.839844 91.777344 96.839844 93.339844 C 96.84375 94.941406 96.851562 96.542969 96.863281 98.144531 C 96.867188 99.386719 96.871094 100.625 96.871094 101.867188 C 96.871094 102.457031 96.875 103.046875 96.878906 103.636719 C 96.929688 110.011719 95.90625 114.769531 91.617188 119.585938 C 90.726562 120.394531 90.011719 120.761719 88.875 121.125 C 88.875 121.371094 88.875 121.621094 88.875 121.875 C 83.550781 124.21875 77.085938 125.300781 71.390625 123.515625 C 65.738281 121.234375 62.992188 117.980469 60.632812 112.476562 C 60.375 111.375 60.375 111.375 60.375 108 C 63.46875 108 66.5625 108 69.75 108 C 69.996094 108.988281 70.246094 109.980469 70.5 111 C 71.390625 112.992188 72.761719 114.101562 74.78125 114.878906 C 77.984375 115.695312 81.148438 115.308594 84 113.625 C 84.929688 112.683594 84.929688 112.683594 85.5 111.75 C 85.746094 111.625 85.996094 111.503906 86.25 111.375 C 86.691406 110.050781 86.6875 108.851562 86.691406 107.472656 C 86.695312 107.191406 86.695312 106.910156 86.699219 106.617188 C 86.707031 105.6875 86.710938 104.753906 86.714844 103.820312 C 86.714844 103.5 86.71875 103.183594 86.71875 102.855469 C 86.726562 101.167969 86.730469 99.480469 86.734375 97.792969 C 86.738281 96.050781 86.753906 94.308594 86.769531 92.566406 C 86.777344 91.226562 86.78125 89.886719 86.78125 88.546875 C 86.785156 87.902344 86.789062 87.261719 86.796875 86.621094 C 86.804688 85.722656 86.804688 84.820312 86.800781 83.921875 C 86.804688 83.660156 86.8125 83.394531 86.816406 83.125 C 86.796875 81.246094 86.285156 80.203125 85.125 78.75 C 83.0625 76.742188 80.808594 76.0625 78 75.960938 C 75.3125 76.035156 73.675781 76.820312 71.671875 78.5625 C 70.152344 80.351562 70.105469 81.128906 69.75 83.625 C 66.53125 83.625 63.316406 83.625 60 83.625 C 60.574219 78.445312 61.78125 74.242188 65.882812 70.734375 C 72.433594 65.855469 80.820312 66.105469 88.125 69 Z M 88.125 69 "/>
<path style=" stroke:none;fill-rule:nonzero;fill:rgb(82.352942%,96.078432%,81.568629%);fill-opacity:1;" d="M 32.25 24 C 31.707031 25.25 31.019531 26.078125 30.058594 27.039062 C 29.777344 27.324219 29.496094 27.605469 29.203125 27.898438 C 28.910156 28.1875 28.617188 28.480469 28.3125 28.78125 C 28.019531 29.078125 27.722656 29.375 27.421875 29.683594 C 26.996094 30.101562 26.996094 30.101562 26.566406 30.53125 C 26.308594 30.789062 26.050781 31.046875 25.785156 31.3125 C 25.125 31.875 25.125 31.875 24.375 31.875 C 24.917969 30.625 25.605469 29.796875 26.566406 28.835938 C 26.847656 28.550781 27.128906 28.269531 27.421875 27.976562 C 27.714844 27.6875 28.007812 27.394531 28.3125 27.09375 C 28.605469 26.796875 28.902344 26.5 29.203125 26.191406 C 29.488281 25.910156 29.769531 25.632812 30.058594 25.34375 C 30.445312 24.957031 30.445312 24.957031 30.839844 24.5625 C 31.5 24 31.5 24 32.25 24 Z M 32.25 24 "/>
<path style=" stroke:none;fill-rule:nonzero;fill:rgb(25.098041%,32.156864%,21.568628%);fill-opacity:1;" d="M 66.75 70.125 C 66.996094 70.25 67.246094 70.371094 67.5 70.5 C 66.140625 71.859375 64.777344 73.222656 63.375 74.625 C 63.375 73.066406 64.21875 72.320312 65.25 71.25 C 66.117188 70.546875 66.117188 70.546875 66.75 70.125 Z M 66.75 70.125 "/>
<path style=" stroke:none;fill-rule:nonzero;fill:rgb(83.137256%,96.078432%,82.745099%);fill-opacity:1;" d="M 24.375 160.125 C 25.636719 160.664062 26.472656 161.34375 27.375 162.375 C 27.375 162.621094 27.375 162.871094 27.375 163.125 C 26.113281 162.585938 25.277344 161.90625 24.375 160.875 C 24.375 160.628906 24.375 160.378906 24.375 160.125 Z M 24.375 160.125 "/>
</g>
</svg>
