<?xml version="1.0" encoding="UTF-8"?>
<svg xmlns="http://www.w3.org/2000/svg" xmlns:xlink="http://www.w3.org/1999/xlink" width="48px" height="48px" viewBox="0 0 48 48" version="1.1">
<g id="surface1">
<path style=" stroke:none;fill-rule:nonzero;fill:rgb(78.431374%,94.509804%,77.64706%);fill-opacity:1;" d="M 35.621094 2.898438 C 35.855469 3.023438 36.097656 3.136719 36.339844 3.25 C 36.722656 3.441406 37.039062 3.675781 37.367188 3.941406 C 37.621094 4.148438 37.882812 4.339844 38.144531 4.535156 C 38.613281 4.882812 39.0625 5.246094 39.507812 5.621094 C 39.746094 5.816406 39.746094 5.816406 40.011719 5.976562 C 40.425781 6.269531 40.769531 6.617188 41.128906 6.976562 C 41.199219 7.050781 41.269531 7.121094 41.34375 7.191406 C 41.410156 7.261719 41.480469 7.328125 41.550781 7.398438 C 41.613281 7.460938 41.671875 7.523438 41.738281 7.585938 C 41.917969 7.796875 42.050781 8.011719 42.1875 8.25 C 42.292969 8.371094 42.402344 8.492188 42.515625 8.605469 C 42.929688 9.0625 43.269531 9.558594 43.605469 10.070312 C 43.832031 10.40625 44.054688 10.6875 44.34375 10.96875 C 44.832031 11.660156 45.191406 12.4375 45.554688 13.199219 C 45.621094 13.335938 45.691406 13.472656 45.757812 13.613281 C 48.589844 19.324219 48.636719 26.148438 46.703125 32.132812 C 46.417969 32.984375 46.050781 33.789062 45.65625 34.59375 C 45.589844 34.730469 45.527344 34.863281 45.460938 35 C 44.523438 36.949219 44.523438 36.949219 43.78125 37.6875 C 43.632812 37.894531 43.484375 38.097656 43.34375 38.308594 C 42.988281 38.816406 42.609375 39.28125 42.179688 39.734375 C 41.996094 39.929688 41.996094 39.929688 41.871094 40.160156 C 41.71875 40.40625 41.5625 40.585938 41.359375 40.789062 C 41.289062 40.859375 41.222656 40.929688 41.152344 41 C 41.078125 41.070312 41.007812 41.140625 40.933594 41.214844 C 40.863281 41.285156 40.792969 41.359375 40.71875 41.429688 C 40.648438 41.5 40.582031 41.570312 40.507812 41.640625 C 40.445312 41.703125 40.382812 41.765625 40.320312 41.828125 C 40.113281 42.011719 39.894531 42.144531 39.65625 42.28125 C 39.476562 42.425781 39.300781 42.570312 39.128906 42.71875 C 38.605469 43.164062 38.0625 43.574219 37.5 43.96875 C 37.433594 44.019531 37.367188 44.066406 37.296875 44.117188 C 36.71875 44.535156 36.125 44.875 35.492188 45.199219 C 35.398438 45.246094 35.308594 45.292969 35.21875 45.339844 C 32.515625 46.734375 29.636719 47.546875 26.625 47.90625 C 26.550781 47.914062 26.476562 47.925781 26.398438 47.933594 C 21.59375 48.496094 16.605469 47.386719 12.378906 45.101562 C 12.144531 44.976562 11.902344 44.863281 11.660156 44.746094 C 11.28125 44.558594 10.960938 44.324219 10.632812 44.058594 C 10.375 43.851562 10.113281 43.65625 9.851562 43.457031 C 9.421875 43.136719 9 42.808594 8.582031 42.46875 C 8.449219 42.363281 8.316406 42.261719 8.175781 42.160156 C 7.679688 41.800781 7.246094 41.398438 6.816406 40.960938 C 6.714844 40.867188 6.714844 40.867188 6.613281 40.765625 C 6.296875 40.445312 6.03125 40.148438 5.8125 39.75 C 5.707031 39.628906 5.597656 39.507812 5.484375 39.390625 C 5.070312 38.9375 4.730469 38.441406 4.394531 37.929688 C 4.167969 37.59375 3.945312 37.3125 3.65625 37.03125 C 3.167969 36.339844 2.808594 35.5625 2.445312 34.800781 C 2.378906 34.664062 2.308594 34.527344 2.242188 34.386719 C -0.589844 28.675781 -0.636719 21.851562 1.296875 15.867188 C 1.582031 15.015625 1.949219 14.210938 2.34375 13.40625 C 2.410156 13.269531 2.472656 13.136719 2.539062 13 C 3.476562 11.050781 3.476562 11.050781 4.21875 10.3125 C 4.367188 10.105469 4.515625 9.902344 4.660156 9.691406 C 5.011719 9.183594 5.390625 8.71875 5.820312 8.265625 C 6.003906 8.070312 6.003906 8.070312 6.128906 7.839844 C 6.28125 7.59375 6.4375 7.414062 6.640625 7.210938 C 6.710938 7.140625 6.777344 7.070312 6.851562 7 C 6.921875 6.929688 6.992188 6.859375 7.066406 6.785156 C 7.136719 6.714844 7.207031 6.640625 7.28125 6.566406 C 7.351562 6.5 7.417969 6.429688 7.492188 6.359375 C 7.554688 6.296875 7.617188 6.234375 7.679688 6.171875 C 7.886719 5.988281 8.105469 5.855469 8.34375 5.71875 C 8.523438 5.574219 8.699219 5.429688 8.871094 5.277344 C 9.394531 4.835938 9.9375 4.425781 10.5 4.03125 C 10.566406 3.980469 10.632812 3.933594 10.703125 3.882812 C 11.28125 3.464844 11.875 3.125 12.511719 2.800781 C 12.601562 2.753906 12.691406 2.707031 12.78125 2.660156 C 15.484375 1.265625 18.363281 0.453125 21.375 0.09375 C 21.449219 0.0859375 21.523438 0.0742188 21.601562 0.0664062 C 26.40625 -0.496094 31.394531 0.613281 35.621094 2.898438 Z M 35.621094 2.898438 "/>
<path style=" stroke:none;fill-rule:nonzero;fill:rgb(15.686275%,21.176471%,11.372549%);fill-opacity:1;" d="M 29.238281 16.945312 C 29.363281 16.945312 29.363281 16.945312 29.488281 16.949219 C 30.824219 16.96875 31.925781 17.339844 32.90625 18.28125 C 33.609375 19.164062 33.84375 19.871094 33.84375 21 C 33.070312 21 32.296875 21 31.5 21 C 31.40625 20.582031 31.40625 20.582031 31.3125 20.15625 C 30.972656 19.59375 30.535156 19.375 29.90625 19.21875 C 29.1875 19.125 28.550781 19.1875 27.9375 19.59375 C 27.515625 19.945312 27.359375 20.375 27.28125 20.90625 C 27.253906 21.390625 27.25 21.875 27.25 22.363281 C 27.25 22.503906 27.25 22.644531 27.246094 22.785156 C 27.246094 23.082031 27.246094 23.378906 27.246094 23.675781 C 27.246094 24.050781 27.242188 24.429688 27.242188 24.804688 C 27.238281 25.097656 27.238281 25.390625 27.238281 25.683594 C 27.238281 25.824219 27.238281 25.960938 27.234375 26.101562 C 27.226562 26.890625 27.246094 27.613281 27.65625 28.3125 C 27.875 28.550781 27.875 28.550781 28.125 28.6875 C 28.175781 28.71875 28.226562 28.753906 28.277344 28.789062 C 28.605469 28.917969 28.929688 28.910156 29.273438 28.910156 C 29.34375 28.910156 29.417969 28.910156 29.488281 28.910156 C 30.03125 28.898438 30.382812 28.800781 30.84375 28.5 C 30.90625 28.5 30.96875 28.5 31.03125 28.5 C 31.277344 28.023438 31.410156 27.632812 31.5 27.09375 C 32.304688 27.09375 33.109375 27.09375 33.9375 27.09375 C 33.9375 28.371094 33.605469 29.050781 32.765625 29.976562 C 32.6875 30.046875 32.609375 30.117188 32.53125 30.1875 C 32.492188 30.234375 32.449219 30.277344 32.410156 30.324219 C 31.707031 31.042969 30.621094 31.234375 29.65625 31.265625 C 28.296875 31.269531 27 31.03125 25.980469 30.054688 C 24.851562 28.824219 24.71875 27.523438 24.722656 25.917969 C 24.722656 25.769531 24.722656 25.621094 24.71875 25.472656 C 24.71875 25.160156 24.71875 24.847656 24.71875 24.535156 C 24.722656 24.140625 24.71875 23.742188 24.71875 23.347656 C 24.714844 23.039062 24.714844 22.730469 24.714844 22.421875 C 24.714844 22.273438 24.714844 22.128906 24.714844 21.984375 C 24.707031 20.472656 24.929688 19.257812 25.980469 18.117188 C 26.894531 17.246094 28.007812 16.929688 29.238281 16.945312 Z M 29.238281 16.945312 "/>
<path style=" stroke:none;fill-rule:nonzero;fill:rgb(15.294118%,20.784314%,10.980392%);fill-opacity:1;" d="M 22.03125 17.25 C 22.03125 17.3125 22.03125 17.375 22.03125 17.4375 C 22.125 17.464844 22.125 17.464844 22.21875 17.492188 C 23 17.863281 23.578125 18.558594 23.90625 19.351562 C 24.109375 19.9375 24.199219 20.476562 24.203125 21.101562 C 24.203125 21.199219 24.203125 21.199219 24.203125 21.296875 C 24.207031 21.511719 24.207031 21.726562 24.207031 21.941406 C 24.207031 22.050781 24.207031 22.050781 24.207031 22.164062 C 24.207031 22.554688 24.210938 22.945312 24.210938 23.335938 C 24.210938 23.734375 24.210938 24.136719 24.214844 24.535156 C 24.21875 24.847656 24.21875 25.15625 24.21875 25.46875 C 24.21875 25.613281 24.21875 25.761719 24.21875 25.910156 C 24.234375 27.503906 23.976562 28.691406 22.90625 29.898438 C 22.683594 30.097656 22.503906 30.191406 22.21875 30.28125 C 22.21875 30.34375 22.21875 30.40625 22.21875 30.46875 C 20.886719 31.054688 19.273438 31.324219 17.847656 30.878906 C 16.433594 30.308594 15.75 29.496094 15.15625 28.117188 C 15.09375 27.84375 15.09375 27.84375 15.09375 27 C 15.867188 27 16.640625 27 17.4375 27 C 17.5 27.246094 17.5625 27.496094 17.625 27.75 C 17.847656 28.246094 18.191406 28.527344 18.695312 28.71875 C 19.496094 28.921875 20.285156 28.828125 21 28.40625 C 21.234375 28.171875 21.234375 28.171875 21.375 27.9375 C 21.4375 27.90625 21.5 27.875 21.5625 27.84375 C 21.671875 27.511719 21.671875 27.210938 21.671875 26.867188 C 21.671875 26.796875 21.675781 26.726562 21.675781 26.65625 C 21.675781 26.421875 21.675781 26.1875 21.679688 25.957031 C 21.679688 25.875 21.679688 25.796875 21.679688 25.714844 C 21.683594 25.292969 21.683594 24.871094 21.683594 24.449219 C 21.683594 24.011719 21.6875 23.578125 21.691406 23.140625 C 21.695312 22.808594 21.695312 22.472656 21.695312 22.136719 C 21.695312 21.976562 21.695312 21.816406 21.699219 21.65625 C 21.699219 21.429688 21.699219 21.207031 21.699219 20.980469 C 21.703125 20.914062 21.703125 20.847656 21.703125 20.78125 C 21.699219 20.3125 21.570312 20.050781 21.28125 19.6875 C 20.765625 19.1875 20.203125 19.015625 19.5 18.992188 C 18.828125 19.007812 18.417969 19.207031 17.917969 19.640625 C 17.539062 20.089844 17.527344 20.28125 17.4375 20.90625 C 16.632812 20.90625 15.828125 20.90625 15 20.90625 C 15.144531 19.613281 15.445312 18.558594 16.46875 17.683594 C 18.109375 16.464844 20.207031 16.527344 22.03125 17.25 Z M 22.03125 17.25 "/>
<path style=" stroke:none;fill-rule:nonzero;fill:rgb(82.352942%,96.078432%,81.568629%);fill-opacity:1;" d="M 8.0625 6 C 7.925781 6.3125 7.753906 6.519531 7.515625 6.761719 C 7.445312 6.832031 7.375 6.902344 7.300781 6.972656 C 7.226562 7.046875 7.152344 7.121094 7.078125 7.195312 C 7.003906 7.269531 6.929688 7.34375 6.855469 7.421875 C 6.75 7.527344 6.75 7.527344 6.640625 7.632812 C 6.578125 7.699219 6.511719 7.761719 6.445312 7.828125 C 6.28125 7.96875 6.28125 7.96875 6.09375 7.96875 C 6.230469 7.65625 6.402344 7.449219 6.640625 7.207031 C 6.710938 7.136719 6.78125 7.066406 6.855469 6.996094 C 6.929688 6.921875 7.003906 6.847656 7.078125 6.773438 C 7.152344 6.699219 7.226562 6.625 7.300781 6.546875 C 7.371094 6.476562 7.441406 6.40625 7.515625 6.335938 C 7.613281 6.238281 7.613281 6.238281 7.710938 6.140625 C 7.875 6 7.875 6 8.0625 6 Z M 8.0625 6 "/>
<path style=" stroke:none;fill-rule:nonzero;fill:rgb(25.098041%,32.156864%,21.568628%);fill-opacity:1;" d="M 16.6875 17.53125 C 16.75 17.5625 16.8125 17.59375 16.875 17.625 C 16.535156 17.964844 16.195312 18.304688 15.84375 18.65625 C 15.84375 18.265625 16.054688 18.082031 16.3125 17.8125 C 16.53125 17.636719 16.53125 17.636719 16.6875 17.53125 Z M 16.6875 17.53125 "/>
<path style=" stroke:none;fill-rule:nonzero;fill:rgb(83.137256%,96.078432%,82.745099%);fill-opacity:1;" d="M 6.09375 40.03125 C 6.410156 40.167969 6.617188 40.335938 6.84375 40.59375 C 6.84375 40.65625 6.84375 40.71875 6.84375 40.78125 C 6.527344 40.644531 6.320312 40.476562 6.09375 40.21875 C 6.09375 40.15625 6.09375 40.09375 6.09375 40.03125 Z M 6.09375 40.03125 "/>
</g>
</svg>
