<?xml version="1.0" encoding="UTF-8"?>
<svg xmlns="http://www.w3.org/2000/svg" xmlns:xlink="http://www.w3.org/1999/xlink" width="180px" height="180px" viewBox="0 0 180 180" version="1.1">
<g id="surface1">
<path style=" stroke:none;fill-rule:nonzero;fill:rgb(78.431374%,94.509804%,77.64706%);fill-opacity:1;" d="M 133.574219 10.867188 C 134.460938 11.335938 135.363281 11.769531 136.273438 12.195312 C 137.703125 12.902344 138.894531 13.78125 140.128906 14.785156 C 141.082031 15.554688 142.058594 16.28125 143.042969 17.007812 C 144.792969 18.3125 146.484375 19.675781 148.160156 21.078125 C 149.050781 21.8125 149.050781 21.8125 150.039062 22.40625 C 151.601562 23.503906 152.886719 24.816406 154.226562 26.167969 C 154.492188 26.433594 154.757812 26.699219 155.035156 26.96875 C 155.289062 27.226562 155.546875 27.484375 155.8125 27.75 C 156.042969 27.980469 156.273438 28.214844 156.511719 28.453125 C 157.195312 29.234375 157.6875 30.042969 158.203125 30.9375 C 158.601562 31.394531 159.011719 31.839844 159.433594 32.277344 C 160.988281 33.984375 162.253906 35.84375 163.527344 37.761719 C 164.363281 39.019531 165.199219 40.078125 166.289062 41.132812 C 168.113281 43.71875 169.464844 46.644531 170.832031 49.492188 C 171.082031 50.011719 171.335938 50.527344 171.59375 51.042969 C 182.210938 72.464844 182.390625 98.058594 175.136719 120.5 C 174.0625 123.6875 172.6875 126.707031 171.210938 129.726562 C 170.96875 130.234375 170.726562 130.742188 170.484375 131.25 C 166.960938 138.550781 166.960938 138.550781 164.179688 141.328125 C 163.617188 142.097656 163.070312 142.871094 162.53125 143.65625 C 161.199219 145.566406 159.78125 147.3125 158.171875 148.996094 C 157.480469 149.738281 157.480469 149.738281 157.015625 150.601562 C 156.449219 151.519531 155.855469 152.203125 155.097656 152.964844 C 154.839844 153.226562 154.582031 153.484375 154.3125 153.75 C 154.046875 154.015625 153.777344 154.28125 153.5 154.554688 C 153.234375 154.824219 152.96875 155.09375 152.695312 155.367188 C 152.4375 155.628906 152.179688 155.886719 151.910156 156.152344 C 151.675781 156.386719 151.441406 156.617188 151.199219 156.859375 C 150.417969 157.542969 149.609375 158.035156 148.710938 158.554688 C 148.042969 159.09375 147.382812 159.644531 146.734375 160.203125 C 144.769531 161.867188 142.730469 163.402344 140.625 164.882812 C 140.375 165.066406 140.125 165.25 139.867188 165.4375 C 137.699219 167 135.464844 168.285156 133.089844 169.496094 C 132.75 169.671875 132.414062 169.847656 132.066406 170.027344 C 121.9375 175.253906 111.140625 178.304688 99.84375 179.648438 C 99.5625 179.683594 99.28125 179.71875 98.992188 179.757812 C 80.980469 181.863281 62.269531 177.695312 46.425781 169.132812 C 45.539062 168.664062 44.636719 168.230469 43.726562 167.804688 C 42.296875 167.097656 41.105469 166.21875 39.871094 165.214844 C 38.910156 164.441406 37.925781 163.707031 36.9375 162.972656 C 35.324219 161.765625 33.746094 160.535156 32.183594 159.265625 C 31.683594 158.867188 31.179688 158.476562 30.660156 158.101562 C 28.796875 156.75 27.171875 155.246094 25.554688 153.609375 C 25.183594 153.246094 25.183594 153.246094 24.804688 152.871094 C 23.605469 151.667969 22.625 150.558594 21.796875 149.0625 C 21.398438 148.605469 20.988281 148.160156 20.566406 147.722656 C 19.011719 146.015625 17.746094 144.15625 16.472656 142.238281 C 15.636719 140.980469 14.800781 139.921875 13.710938 138.867188 C 11.886719 136.28125 10.535156 133.355469 9.167969 130.507812 C 8.917969 129.988281 8.664062 129.472656 8.40625 128.957031 C -2.210938 107.535156 -2.390625 81.941406 4.863281 59.5 C 5.9375 56.3125 7.3125 53.292969 8.789062 50.273438 C 9.03125 49.765625 9.273438 49.257812 9.515625 48.75 C 13.039062 41.449219 13.039062 41.449219 15.820312 38.671875 C 16.382812 37.902344 16.929688 37.128906 17.46875 36.34375 C 18.800781 34.433594 20.21875 32.6875 21.828125 31.003906 C 22.519531 30.261719 22.519531 30.261719 22.984375 29.398438 C 23.550781 28.480469 24.144531 27.796875 24.902344 27.035156 C 25.160156 26.773438 25.417969 26.515625 25.6875 26.25 C 25.953125 25.984375 26.222656 25.71875 26.5 25.445312 C 26.765625 25.175781 27.03125 24.90625 27.304688 24.632812 C 27.5625 24.371094 27.820312 24.113281 28.089844 23.847656 C 28.324219 23.613281 28.558594 23.382812 28.800781 23.140625 C 29.582031 22.457031 30.390625 21.964844 31.289062 21.445312 C 31.957031 20.90625 32.617188 20.355469 33.265625 19.796875 C 35.230469 18.132812 37.269531 16.597656 39.375 15.117188 C 39.625 14.933594 39.875 14.75 40.132812 14.5625 C 42.300781 13 44.535156 11.714844 46.910156 10.503906 C 47.25 10.328125 47.585938 10.152344 47.933594 9.972656 C 58.0625 4.746094 68.859375 1.695312 80.15625 0.351562 C 80.4375 0.316406 80.71875 0.28125 81.007812 0.242188 C 99.019531 -1.863281 117.730469 2.304688 133.574219 10.867188 Z M 133.574219 10.867188 "/>
<path style=" stroke:none;fill-rule:nonzero;fill:rgb(15.686275%,21.176471%,11.372549%);fill-opacity:1;" d="M 109.644531 63.546875 C 110.109375 63.550781 110.109375 63.550781 110.585938 63.554688 C 115.585938 63.636719 119.71875 65.023438 123.398438 68.554688 C 126.039062 71.859375 126.914062 74.519531 126.914062 78.75 C 124.015625 78.75 121.113281 78.75 118.125 78.75 C 117.777344 77.183594 117.777344 77.183594 117.421875 75.585938 C 116.152344 73.484375 114.511719 72.65625 112.148438 72.070312 C 109.449219 71.726562 107.070312 71.957031 104.765625 73.476562 C 103.175781 74.792969 102.605469 76.410156 102.304688 78.398438 C 102.195312 80.21875 102.1875 82.035156 102.1875 83.855469 C 102.183594 84.386719 102.183594 84.917969 102.179688 85.449219 C 102.175781 86.5625 102.175781 87.671875 102.175781 88.78125 C 102.175781 90.195312 102.164062 91.609375 102.152344 93.023438 C 102.144531 94.121094 102.144531 95.21875 102.144531 96.316406 C 102.144531 96.835938 102.140625 97.355469 102.132812 97.878906 C 102.105469 100.839844 102.167969 103.550781 103.710938 106.171875 C 104.53125 107.066406 104.53125 107.066406 105.46875 107.578125 C 105.660156 107.703125 105.847656 107.828125 106.046875 107.953125 C 107.269531 108.4375 108.480469 108.414062 109.773438 108.414062 C 110.042969 108.414062 110.3125 108.414062 110.585938 108.414062 C 112.621094 108.375 113.941406 108 115.664062 106.875 C 115.894531 106.875 116.128906 106.875 116.367188 106.875 C 117.292969 105.085938 117.789062 103.617188 118.125 101.601562 C 121.140625 101.601562 124.15625 101.601562 127.265625 101.601562 C 127.265625 106.394531 126.023438 108.945312 122.871094 112.414062 C 122.582031 112.671875 122.289062 112.933594 121.992188 113.203125 C 121.839844 113.371094 121.691406 113.539062 121.535156 113.714844 C 118.902344 116.40625 114.835938 117.132812 111.214844 117.242188 C 106.109375 117.257812 101.246094 116.367188 97.425781 112.699219 C 93.195312 108.089844 92.699219 103.214844 92.707031 97.199219 C 92.707031 96.636719 92.703125 96.078125 92.703125 95.519531 C 92.699219 94.347656 92.699219 93.179688 92.703125 92.007812 C 92.703125 90.523438 92.699219 89.035156 92.6875 87.546875 C 92.683594 86.390625 92.683594 85.234375 92.683594 84.078125 C 92.683594 83.53125 92.683594 82.984375 92.679688 82.433594 C 92.648438 76.777344 93.484375 72.21875 97.425781 67.9375 C 100.851562 64.675781 105.027344 63.492188 109.644531 63.546875 Z M 109.644531 63.546875 "/>
<path style=" stroke:none;fill-rule:nonzero;fill:rgb(15.294118%,20.784314%,10.980392%);fill-opacity:1;" d="M 82.617188 64.6875 C 82.617188 64.917969 82.617188 65.152344 82.617188 65.390625 C 82.964844 65.488281 82.964844 65.488281 83.320312 65.589844 C 86.246094 66.988281 88.410156 69.59375 89.648438 72.5625 C 90.410156 74.765625 90.746094 76.792969 90.761719 79.128906 C 90.761719 79.496094 90.761719 79.496094 90.765625 79.867188 C 90.769531 80.671875 90.773438 81.472656 90.773438 82.277344 C 90.777344 82.691406 90.777344 82.691406 90.777344 83.113281 C 90.78125 84.578125 90.785156 86.042969 90.789062 87.507812 C 90.789062 89.007812 90.796875 90.507812 90.808594 92.011719 C 90.816406 93.175781 90.816406 94.335938 90.816406 95.5 C 90.816406 96.054688 90.820312 96.605469 90.824219 97.160156 C 90.871094 103.132812 89.914062 107.59375 85.890625 112.113281 C 85.058594 112.871094 84.386719 113.210938 83.320312 113.554688 C 83.320312 113.785156 83.320312 114.019531 83.320312 114.257812 C 78.328125 116.453125 72.269531 117.46875 66.929688 115.796875 C 61.628906 113.660156 59.054688 110.609375 56.84375 105.445312 C 56.601562 104.414062 56.601562 104.414062 56.601562 101.25 C 59.5 101.25 62.402344 101.25 65.390625 101.25 C 65.621094 102.179688 65.855469 103.105469 66.09375 104.0625 C 66.929688 105.929688 68.214844 106.972656 70.105469 107.699219 C 73.109375 108.464844 76.078125 108.101562 78.75 106.523438 C 79.621094 105.640625 79.621094 105.640625 80.15625 104.765625 C 80.386719 104.648438 80.621094 104.535156 80.859375 104.414062 C 81.273438 103.171875 81.269531 102.046875 81.273438 100.757812 C 81.277344 100.492188 81.277344 100.226562 81.28125 99.957031 C 81.285156 99.082031 81.292969 98.207031 81.292969 97.332031 C 81.296875 97.03125 81.296875 96.734375 81.300781 96.425781 C 81.304688 94.84375 81.3125 93.261719 81.316406 91.679688 C 81.320312 90.046875 81.332031 88.414062 81.34375 86.78125 C 81.355469 85.527344 81.355469 84.269531 81.359375 83.011719 C 81.359375 82.410156 81.363281 81.808594 81.371094 81.207031 C 81.378906 80.363281 81.378906 79.519531 81.375 78.675781 C 81.378906 78.429688 81.386719 78.183594 81.390625 77.929688 C 81.371094 76.167969 80.890625 75.191406 79.804688 73.828125 C 77.871094 71.945312 75.757812 71.308594 73.125 71.214844 C 70.605469 71.285156 69.070312 72.019531 67.191406 73.652344 C 65.765625 75.328125 65.726562 76.058594 65.390625 78.398438 C 62.375 78.398438 59.359375 78.398438 56.25 78.398438 C 56.789062 73.542969 57.921875 69.601562 61.765625 66.3125 C 67.90625 61.738281 75.769531 61.976562 82.617188 64.6875 Z M 82.617188 64.6875 "/>
<path style=" stroke:none;fill-rule:nonzero;fill:rgb(82.352942%,96.078432%,81.568629%);fill-opacity:1;" d="M 30.234375 22.5 C 29.722656 23.671875 29.078125 24.449219 28.179688 25.351562 C 27.914062 25.617188 27.652344 25.882812 27.378906 26.15625 C 27.101562 26.425781 26.828125 26.699219 26.542969 26.984375 C 26.265625 27.261719 25.992188 27.539062 25.707031 27.828125 C 25.308594 28.222656 25.308594 28.222656 24.90625 28.625 C 24.664062 28.867188 24.421875 29.109375 24.171875 29.355469 C 23.554688 29.882812 23.554688 29.882812 22.851562 29.882812 C 23.363281 28.710938 24.007812 27.933594 24.90625 27.03125 C 25.171875 26.765625 25.433594 26.5 25.707031 26.226562 C 25.984375 25.957031 26.257812 25.683594 26.542969 25.398438 C 26.820312 25.121094 27.09375 24.84375 27.378906 24.554688 C 27.644531 24.292969 27.90625 24.027344 28.179688 23.757812 C 28.542969 23.394531 28.542969 23.394531 28.914062 23.027344 C 29.53125 22.5 29.53125 22.5 30.234375 22.5 Z M 30.234375 22.5 "/>
<path style=" stroke:none;fill-rule:nonzero;fill:rgb(25.098041%,32.156864%,21.568628%);fill-opacity:1;" d="M 62.578125 65.742188 C 62.808594 65.859375 63.042969 65.972656 63.28125 66.09375 C 62.003906 67.371094 60.730469 68.644531 59.414062 69.960938 C 59.414062 68.5 60.203125 67.800781 61.171875 66.796875 C 61.984375 66.136719 61.984375 66.136719 62.578125 65.742188 Z M 62.578125 65.742188 "/>
<path style=" stroke:none;fill-rule:nonzero;fill:rgb(83.137256%,96.078432%,82.745099%);fill-opacity:1;" d="M 22.851562 150.117188 C 24.035156 150.625 24.816406 151.257812 25.664062 152.226562 C 25.664062 152.457031 25.664062 152.691406 25.664062 152.929688 C 24.480469 152.421875 23.699219 151.789062 22.851562 150.820312 C 22.851562 150.589844 22.851562 150.355469 22.851562 150.117188 Z M 22.851562 150.117188 "/>
</g>
</svg>
