<?xml version="1.0" encoding="UTF-8"?>
<svg xmlns="http://www.w3.org/2000/svg" xmlns:xlink="http://www.w3.org/1999/xlink" width="32px" height="32px" viewBox="0 0 32 32" version="1.1">
<g id="surface1">
<path style=" stroke:none;fill-rule:nonzero;fill:rgb(78.431374%,94.509804%,77.64706%);fill-opacity:1;" d="M 23.746094 1.933594 C 23.902344 2.015625 24.066406 2.09375 24.226562 2.167969 C 24.480469 2.292969 24.691406 2.449219 24.914062 2.628906 C 25.082031 2.765625 25.253906 2.894531 25.429688 3.023438 C 25.742188 3.253906 26.042969 3.496094 26.339844 3.746094 C 26.496094 3.878906 26.496094 3.878906 26.671875 3.984375 C 26.949219 4.179688 27.179688 4.410156 27.417969 4.652344 C 27.464844 4.699219 27.511719 4.746094 27.5625 4.792969 C 27.605469 4.839844 27.652344 4.886719 27.699219 4.933594 C 27.742188 4.976562 27.78125 5.015625 27.824219 5.058594 C 27.945312 5.195312 28.03125 5.339844 28.125 5.5 C 28.195312 5.582031 28.269531 5.660156 28.34375 5.738281 C 28.621094 6.042969 28.84375 6.371094 29.070312 6.714844 C 29.21875 6.9375 29.367188 7.125 29.5625 7.3125 C 29.886719 7.773438 30.125 8.292969 30.371094 8.796875 C 30.414062 8.890625 30.460938 8.984375 30.503906 9.074219 C 32.394531 12.882812 32.425781 17.433594 31.136719 21.421875 C 30.945312 21.988281 30.699219 22.527344 30.4375 23.0625 C 30.394531 23.152344 30.351562 23.242188 30.308594 23.332031 C 29.683594 24.632812 29.683594 24.632812 29.1875 25.125 C 29.085938 25.261719 28.992188 25.398438 28.894531 25.539062 C 28.65625 25.878906 28.40625 26.1875 28.121094 26.488281 C 27.996094 26.621094 27.996094 26.621094 27.914062 26.773438 C 27.8125 26.9375 27.707031 27.058594 27.574219 27.195312 C 27.527344 27.238281 27.480469 27.285156 27.433594 27.332031 C 27.386719 27.378906 27.339844 27.429688 27.289062 27.476562 C 27.242188 27.523438 27.195312 27.570312 27.144531 27.621094 C 27.101562 27.667969 27.054688 27.714844 27.007812 27.761719 C 26.964844 27.800781 26.921875 27.84375 26.878906 27.886719 C 26.742188 28.007812 26.597656 28.09375 26.4375 28.1875 C 26.320312 28.285156 26.203125 28.382812 26.085938 28.480469 C 25.738281 28.777344 25.375 29.050781 25 29.3125 C 24.957031 29.34375 24.910156 29.378906 24.863281 29.410156 C 24.480469 29.6875 24.082031 29.917969 23.660156 30.132812 C 23.601562 30.164062 23.539062 30.195312 23.476562 30.226562 C 21.679688 31.15625 19.757812 31.699219 17.75 31.9375 C 17.699219 31.945312 17.648438 31.949219 17.597656 31.957031 C 14.394531 32.332031 11.070312 31.589844 8.253906 30.066406 C 8.097656 29.984375 7.933594 29.90625 7.773438 29.832031 C 7.519531 29.707031 7.308594 29.550781 7.089844 29.371094 C 6.917969 29.234375 6.742188 29.101562 6.566406 28.972656 C 6.28125 28.757812 6 28.539062 5.722656 28.3125 C 5.632812 28.242188 5.542969 28.171875 5.449219 28.105469 C 5.121094 27.867188 4.832031 27.597656 4.542969 27.308594 C 4.476562 27.242188 4.476562 27.242188 4.410156 27.175781 C 4.195312 26.964844 4.023438 26.765625 3.875 26.5 C 3.804688 26.417969 3.730469 26.339844 3.65625 26.261719 C 3.378906 25.957031 3.15625 25.628906 2.929688 25.285156 C 2.78125 25.0625 2.632812 24.875 2.4375 24.6875 C 2.113281 24.226562 1.875 23.707031 1.628906 23.203125 C 1.585938 23.109375 1.539062 23.015625 1.496094 22.925781 C -0.394531 19.117188 -0.425781 14.566406 0.863281 10.578125 C 1.054688 10.011719 1.300781 9.472656 1.5625 8.9375 C 1.605469 8.847656 1.648438 8.757812 1.691406 8.667969 C 2.316406 7.367188 2.316406 7.367188 2.8125 6.875 C 2.914062 6.738281 3.007812 6.601562 3.105469 6.460938 C 3.34375 6.121094 3.59375 5.8125 3.878906 5.511719 C 4.003906 5.378906 4.003906 5.378906 4.085938 5.226562 C 4.1875 5.0625 4.292969 4.941406 4.425781 4.804688 C 4.472656 4.761719 4.519531 4.714844 4.566406 4.667969 C 4.613281 4.621094 4.660156 4.570312 4.710938 4.523438 C 4.757812 4.476562 4.804688 4.429688 4.855469 4.378906 C 4.898438 4.332031 4.945312 4.285156 4.992188 4.238281 C 5.035156 4.199219 5.078125 4.15625 5.121094 4.113281 C 5.257812 3.992188 5.402344 3.90625 5.5625 3.8125 C 5.679688 3.714844 5.796875 3.617188 5.914062 3.519531 C 6.261719 3.222656 6.625 2.949219 7 2.6875 C 7.042969 2.65625 7.089844 2.621094 7.136719 2.589844 C 7.519531 2.3125 7.917969 2.082031 8.339844 1.867188 C 8.398438 1.835938 8.460938 1.804688 8.523438 1.773438 C 10.320312 0.84375 12.242188 0.300781 14.25 0.0625 C 14.300781 0.0546875 14.351562 0.0507812 14.402344 0.0429688 C 17.605469 -0.332031 20.929688 0.410156 23.746094 1.933594 Z M 23.746094 1.933594 "/>
<path style=" stroke:none;fill-rule:nonzero;fill:rgb(15.686275%,21.176471%,11.372549%);fill-opacity:1;" d="M 19.492188 11.296875 C 19.574219 11.296875 19.574219 11.296875 19.660156 11.296875 C 20.546875 11.3125 21.285156 11.558594 21.9375 12.1875 C 22.40625 12.773438 22.5625 13.246094 22.5625 14 C 22.046875 14 21.53125 14 21 14 C 20.9375 13.722656 20.9375 13.722656 20.875 13.4375 C 20.648438 13.0625 20.359375 12.917969 19.9375 12.8125 C 19.457031 12.75 19.035156 12.792969 18.625 13.0625 C 18.34375 13.296875 18.242188 13.582031 18.1875 13.9375 C 18.167969 14.261719 18.167969 14.582031 18.167969 14.90625 C 18.167969 15.003906 18.164062 15.097656 18.164062 15.191406 C 18.164062 15.386719 18.164062 15.585938 18.164062 15.785156 C 18.164062 16.035156 18.164062 16.285156 18.160156 16.539062 C 18.160156 16.734375 18.160156 16.925781 18.160156 17.121094 C 18.160156 17.214844 18.160156 17.308594 18.15625 17.402344 C 18.152344 17.925781 18.164062 18.410156 18.4375 18.875 C 18.582031 19.035156 18.582031 19.035156 18.75 19.125 C 18.785156 19.148438 18.816406 19.167969 18.851562 19.191406 C 19.070312 19.277344 19.285156 19.273438 19.515625 19.273438 C 19.5625 19.273438 19.609375 19.273438 19.660156 19.273438 C 20.019531 19.265625 20.257812 19.199219 20.5625 19 C 20.605469 19 20.644531 19 20.6875 19 C 20.851562 18.683594 20.941406 18.421875 21 18.0625 C 21.535156 18.0625 22.074219 18.0625 22.625 18.0625 C 22.625 18.914062 22.402344 19.367188 21.84375 19.984375 C 21.792969 20.03125 21.742188 20.078125 21.6875 20.125 C 21.660156 20.15625 21.632812 20.183594 21.605469 20.214844 C 21.136719 20.695312 20.414062 20.824219 19.773438 20.84375 C 18.863281 20.847656 18 20.6875 17.320312 20.035156 C 16.566406 19.214844 16.480469 18.351562 16.480469 17.28125 C 16.480469 17.179688 16.480469 17.082031 16.480469 16.980469 C 16.480469 16.773438 16.480469 16.566406 16.480469 16.355469 C 16.480469 16.09375 16.480469 15.828125 16.476562 15.5625 C 16.476562 15.359375 16.476562 15.152344 16.476562 14.949219 C 16.476562 14.851562 16.476562 14.753906 16.476562 14.65625 C 16.46875 13.648438 16.621094 12.839844 17.320312 12.078125 C 17.929688 11.5 18.671875 11.289062 19.492188 11.296875 Z M 19.492188 11.296875 "/>
<path style=" stroke:none;fill-rule:nonzero;fill:rgb(15.294118%,20.784314%,10.980392%);fill-opacity:1;" d="M 14.6875 11.5 C 14.6875 11.542969 14.6875 11.582031 14.6875 11.625 C 14.75 11.640625 14.75 11.640625 14.8125 11.660156 C 15.332031 11.910156 15.71875 12.371094 15.9375 12.898438 C 16.074219 13.292969 16.132812 13.652344 16.136719 14.066406 C 16.136719 14.132812 16.136719 14.132812 16.136719 14.199219 C 16.136719 14.339844 16.136719 14.484375 16.136719 14.628906 C 16.136719 14.699219 16.136719 14.699219 16.136719 14.777344 C 16.140625 15.035156 16.140625 15.296875 16.140625 15.558594 C 16.140625 15.824219 16.140625 16.089844 16.144531 16.359375 C 16.144531 16.5625 16.144531 16.769531 16.144531 16.976562 C 16.144531 17.078125 16.144531 17.175781 16.148438 17.273438 C 16.15625 18.335938 15.984375 19.128906 15.269531 19.929688 C 15.121094 20.066406 15 20.125 14.8125 20.1875 C 14.8125 20.230469 14.8125 20.269531 14.8125 20.3125 C 13.925781 20.703125 12.847656 20.882812 11.898438 20.585938 C 10.957031 20.207031 10.5 19.664062 10.105469 18.746094 C 10.0625 18.5625 10.0625 18.5625 10.0625 18 C 10.578125 18 11.09375 18 11.625 18 C 11.667969 18.164062 11.707031 18.328125 11.75 18.5 C 11.898438 18.832031 12.125 19.015625 12.464844 19.144531 C 12.996094 19.28125 13.523438 19.21875 14 18.9375 C 14.15625 18.78125 14.15625 18.78125 14.25 18.625 C 14.292969 18.605469 14.332031 18.582031 14.375 18.5625 C 14.449219 18.34375 14.449219 18.140625 14.449219 17.914062 C 14.449219 17.863281 14.449219 17.816406 14.449219 17.769531 C 14.449219 17.613281 14.453125 17.457031 14.453125 17.304688 C 14.453125 17.25 14.453125 17.195312 14.453125 17.140625 C 14.453125 16.859375 14.457031 16.578125 14.457031 16.296875 C 14.457031 16.007812 14.457031 15.71875 14.460938 15.429688 C 14.464844 15.203125 14.464844 14.980469 14.464844 14.757812 C 14.464844 14.652344 14.464844 14.542969 14.464844 14.4375 C 14.46875 14.285156 14.46875 14.136719 14.46875 13.988281 C 14.46875 13.941406 14.46875 13.898438 14.46875 13.855469 C 14.464844 13.542969 14.378906 13.367188 14.1875 13.125 C 13.84375 12.789062 13.46875 12.675781 13 12.660156 C 12.550781 12.671875 12.277344 12.804688 11.945312 13.09375 C 11.691406 13.390625 11.683594 13.519531 11.625 13.9375 C 11.089844 13.9375 10.550781 13.9375 10 13.9375 C 10.097656 13.074219 10.296875 12.375 10.980469 11.789062 C 12.074219 10.976562 13.46875 11.019531 14.6875 11.5 Z M 14.6875 11.5 "/>
<path style=" stroke:none;fill-rule:nonzero;fill:rgb(82.352942%,96.078432%,81.568629%);fill-opacity:1;" d="M 5.375 4 C 5.285156 4.207031 5.167969 4.347656 5.007812 4.507812 C 4.960938 4.554688 4.914062 4.601562 4.867188 4.648438 C 4.820312 4.699219 4.769531 4.746094 4.71875 4.796875 C 4.667969 4.847656 4.621094 4.894531 4.570312 4.945312 C 4.5 5.015625 4.5 5.015625 4.429688 5.089844 C 4.382812 5.132812 4.339844 5.175781 4.296875 5.21875 C 4.1875 5.3125 4.1875 5.3125 4.0625 5.3125 C 4.152344 5.105469 4.269531 4.964844 4.429688 4.804688 C 4.476562 4.757812 4.523438 4.710938 4.570312 4.664062 C 4.617188 4.613281 4.667969 4.566406 4.71875 4.515625 C 4.769531 4.464844 4.816406 4.417969 4.867188 4.367188 C 4.914062 4.320312 4.960938 4.273438 5.007812 4.222656 C 5.074219 4.160156 5.074219 4.160156 5.140625 4.09375 C 5.25 4 5.25 4 5.375 4 Z M 5.375 4 "/>
<path style=" stroke:none;fill-rule:nonzero;fill:rgb(25.098041%,32.156864%,21.568628%);fill-opacity:1;" d="M 11.125 11.6875 C 11.167969 11.707031 11.207031 11.730469 11.25 11.75 C 11.023438 11.976562 10.796875 12.203125 10.5625 12.4375 C 10.5625 12.175781 10.703125 12.054688 10.875 11.875 C 11.019531 11.757812 11.019531 11.757812 11.125 11.6875 Z M 11.125 11.6875 "/>
<path style=" stroke:none;fill-rule:nonzero;fill:rgb(83.137256%,96.078432%,82.745099%);fill-opacity:1;" d="M 4.0625 26.6875 C 4.273438 26.777344 4.410156 26.890625 4.5625 27.0625 C 4.5625 27.105469 4.5625 27.144531 4.5625 27.1875 C 4.351562 27.097656 4.214844 26.984375 4.0625 26.8125 C 4.0625 26.769531 4.0625 26.730469 4.0625 26.6875 Z M 4.0625 26.6875 "/>
</g>
</svg>
