<?xml version="1.0" encoding="UTF-8"?>
<svg xmlns="http://www.w3.org/2000/svg" xmlns:xlink="http://www.w3.org/1999/xlink" width="16px" height="16px" viewBox="0 0 16 16" version="1.1">
<g id="surface1">
<path style=" stroke:none;fill-rule:nonzero;fill:rgb(78.431374%,94.509804%,77.64706%);fill-opacity:1;" d="M 11.875 0.964844 C 11.953125 1.007812 12.03125 1.046875 12.113281 1.082031 C 12.242188 1.148438 12.347656 1.226562 12.457031 1.3125 C 12.539062 1.382812 12.628906 1.445312 12.714844 1.511719 C 12.871094 1.628906 13.019531 1.75 13.167969 1.875 C 13.25 1.9375 13.25 1.9375 13.335938 1.992188 C 13.476562 2.089844 13.589844 2.207031 13.710938 2.324219 C 13.734375 2.351562 13.757812 2.375 13.78125 2.398438 C 13.804688 2.421875 13.828125 2.441406 13.851562 2.464844 C 13.871094 2.488281 13.890625 2.507812 13.914062 2.527344 C 13.972656 2.597656 14.015625 2.671875 14.0625 2.75 C 14.097656 2.789062 14.132812 2.832031 14.171875 2.867188 C 14.308594 3.019531 14.421875 3.1875 14.535156 3.355469 C 14.609375 3.46875 14.683594 3.5625 14.78125 3.65625 C 14.945312 3.886719 15.0625 4.144531 15.183594 4.398438 C 15.207031 4.445312 15.230469 4.492188 15.253906 4.539062 C 16.195312 6.441406 16.210938 8.714844 15.566406 10.710938 C 15.472656 10.996094 15.351562 11.261719 15.21875 11.53125 C 15.195312 11.578125 15.175781 11.621094 15.152344 11.667969 C 14.839844 12.316406 14.839844 12.316406 14.59375 12.5625 C 14.542969 12.632812 14.496094 12.699219 14.449219 12.769531 C 14.328125 12.9375 14.203125 13.09375 14.058594 13.246094 C 14 13.308594 14 13.308594 13.957031 13.386719 C 13.90625 13.46875 13.855469 13.527344 13.785156 13.597656 C 13.761719 13.621094 13.742188 13.644531 13.71875 13.667969 C 13.691406 13.691406 13.667969 13.714844 13.644531 13.738281 C 13.621094 13.761719 13.597656 13.785156 13.574219 13.808594 C 13.550781 13.832031 13.527344 13.855469 13.503906 13.878906 C 13.480469 13.902344 13.460938 13.921875 13.441406 13.941406 C 13.371094 14.003906 13.296875 14.046875 13.21875 14.09375 C 13.160156 14.140625 13.101562 14.191406 13.042969 14.238281 C 12.867188 14.386719 12.6875 14.523438 12.5 14.65625 C 12.476562 14.671875 12.457031 14.6875 12.433594 14.707031 C 12.238281 14.84375 12.042969 14.957031 11.832031 15.066406 C 11.800781 15.082031 11.769531 15.097656 11.738281 15.113281 C 10.839844 15.578125 9.878906 15.847656 8.875 15.96875 C 8.851562 15.972656 8.824219 15.976562 8.800781 15.976562 C 7.199219 16.164062 5.535156 15.796875 4.125 15.035156 C 4.046875 14.992188 3.96875 14.953125 3.886719 14.914062 C 3.761719 14.851562 3.652344 14.773438 3.542969 14.6875 C 3.457031 14.617188 3.371094 14.550781 3.285156 14.484375 C 3.140625 14.378906 3 14.269531 2.859375 14.15625 C 2.816406 14.121094 2.773438 14.085938 2.726562 14.054688 C 2.558594 13.933594 2.414062 13.800781 2.273438 13.652344 C 2.238281 13.621094 2.238281 13.621094 2.203125 13.589844 C 2.097656 13.480469 2.011719 13.382812 1.9375 13.25 C 1.902344 13.210938 1.867188 13.167969 1.828125 13.128906 C 1.691406 12.980469 1.578125 12.8125 1.464844 12.644531 C 1.390625 12.53125 1.316406 12.4375 1.21875 12.34375 C 1.054688 12.113281 0.9375 11.855469 0.816406 11.601562 C 0.792969 11.554688 0.769531 11.507812 0.746094 11.460938 C -0.195312 9.558594 -0.210938 7.285156 0.433594 5.289062 C 0.527344 5.003906 0.648438 4.738281 0.78125 4.46875 C 0.804688 4.421875 0.824219 4.378906 0.847656 4.332031 C 1.160156 3.683594 1.160156 3.683594 1.40625 3.4375 C 1.457031 3.367188 1.503906 3.300781 1.554688 3.230469 C 1.671875 3.0625 1.796875 2.90625 1.941406 2.753906 C 2 2.691406 2 2.691406 2.042969 2.613281 C 2.09375 2.53125 2.144531 2.472656 2.214844 2.402344 C 2.238281 2.378906 2.257812 2.355469 2.285156 2.332031 C 2.308594 2.308594 2.332031 2.285156 2.355469 2.261719 C 2.378906 2.238281 2.402344 2.214844 2.425781 2.1875 C 2.449219 2.167969 2.472656 2.144531 2.496094 2.121094 C 2.519531 2.097656 2.539062 2.078125 2.558594 2.058594 C 2.628906 1.996094 2.703125 1.953125 2.78125 1.90625 C 2.839844 1.859375 2.898438 1.808594 2.957031 1.757812 C 3.132812 1.613281 3.3125 1.476562 3.5 1.34375 C 3.523438 1.328125 3.542969 1.3125 3.566406 1.292969 C 3.761719 1.15625 3.957031 1.042969 4.171875 0.933594 C 4.199219 0.917969 4.230469 0.902344 4.261719 0.886719 C 5.160156 0.421875 6.121094 0.152344 7.125 0.03125 C 7.148438 0.0273438 7.175781 0.0234375 7.199219 0.0234375 C 8.800781 -0.164062 10.464844 0.203125 11.875 0.964844 Z M 11.875 0.964844 "/>
<path style=" stroke:none;fill-rule:nonzero;fill:rgb(15.686275%,21.176471%,11.372549%);fill-opacity:1;" d="M 9.746094 5.648438 C 9.789062 5.648438 9.789062 5.648438 9.828125 5.648438 C 10.273438 5.65625 10.640625 5.78125 10.96875 6.09375 C 11.203125 6.386719 11.28125 6.625 11.28125 7 C 11.023438 7 10.765625 7 10.5 7 C 10.46875 6.859375 10.46875 6.859375 10.4375 6.71875 C 10.324219 6.53125 10.179688 6.457031 9.96875 6.40625 C 9.730469 6.375 9.515625 6.394531 9.3125 6.53125 C 9.171875 6.648438 9.121094 6.792969 9.09375 6.96875 C 9.085938 7.128906 9.082031 7.292969 9.082031 7.453125 C 9.082031 7.5 9.082031 7.546875 9.082031 7.59375 C 9.082031 7.695312 9.082031 7.792969 9.082031 7.890625 C 9.082031 8.015625 9.082031 8.144531 9.082031 8.269531 C 9.078125 8.367188 9.078125 8.464844 9.078125 8.5625 C 9.078125 8.609375 9.078125 8.652344 9.078125 8.699219 C 9.074219 8.964844 9.082031 9.203125 9.21875 9.4375 C 9.292969 9.515625 9.292969 9.515625 9.375 9.5625 C 9.390625 9.574219 9.410156 9.585938 9.425781 9.597656 C 9.535156 9.640625 9.644531 9.636719 9.757812 9.636719 C 9.78125 9.636719 9.804688 9.636719 9.828125 9.636719 C 10.011719 9.632812 10.128906 9.601562 10.28125 9.5 C 10.300781 9.5 10.324219 9.5 10.34375 9.5 C 10.425781 9.339844 10.46875 9.210938 10.5 9.03125 C 10.769531 9.03125 11.035156 9.03125 11.3125 9.03125 C 11.3125 9.457031 11.203125 9.683594 10.921875 9.992188 C 10.894531 10.015625 10.871094 10.039062 10.84375 10.0625 C 10.832031 10.078125 10.816406 10.09375 10.804688 10.109375 C 10.570312 10.347656 10.207031 10.410156 9.886719 10.421875 C 9.433594 10.421875 9 10.34375 8.660156 10.015625 C 8.285156 9.609375 8.238281 9.175781 8.242188 8.640625 C 8.242188 8.589844 8.242188 8.539062 8.238281 8.492188 C 8.238281 8.386719 8.238281 8.28125 8.238281 8.179688 C 8.242188 8.046875 8.238281 7.914062 8.238281 7.78125 C 8.238281 7.679688 8.238281 7.578125 8.238281 7.472656 C 8.238281 7.425781 8.238281 7.375 8.238281 7.328125 C 8.234375 6.824219 8.308594 6.417969 8.660156 6.039062 C 8.964844 5.75 9.335938 5.644531 9.746094 5.648438 Z M 9.746094 5.648438 "/>
<path style=" stroke:none;fill-rule:nonzero;fill:rgb(15.294118%,20.784314%,10.980392%);fill-opacity:1;" d="M 7.34375 5.75 C 7.34375 5.769531 7.34375 5.792969 7.34375 5.8125 C 7.375 5.820312 7.375 5.820312 7.40625 5.828125 C 7.667969 5.953125 7.859375 6.1875 7.96875 6.449219 C 8.035156 6.644531 8.066406 6.824219 8.066406 7.035156 C 8.066406 7.066406 8.066406 7.066406 8.066406 7.097656 C 8.070312 7.171875 8.070312 7.242188 8.070312 7.3125 C 8.070312 7.351562 8.070312 7.351562 8.070312 7.386719 C 8.070312 7.519531 8.070312 7.648438 8.070312 7.777344 C 8.070312 7.910156 8.070312 8.046875 8.070312 8.179688 C 8.074219 8.28125 8.074219 8.386719 8.074219 8.488281 C 8.074219 8.539062 8.074219 8.585938 8.074219 8.636719 C 8.078125 9.167969 7.992188 9.5625 7.636719 9.964844 C 7.5625 10.03125 7.5 10.0625 7.40625 10.09375 C 7.40625 10.113281 7.40625 10.136719 7.40625 10.15625 C 6.960938 10.351562 6.425781 10.441406 5.949219 10.292969 C 5.476562 10.101562 5.25 9.832031 5.054688 9.375 C 5.03125 9.28125 5.03125 9.28125 5.03125 9 C 5.289062 9 5.546875 9 5.8125 9 C 5.832031 9.082031 5.855469 9.164062 5.875 9.25 C 5.949219 9.414062 6.0625 9.507812 6.230469 9.574219 C 6.5 9.640625 6.761719 9.609375 7 9.46875 C 7.078125 9.390625 7.078125 9.390625 7.125 9.3125 C 7.144531 9.300781 7.167969 9.292969 7.1875 9.28125 C 7.222656 9.171875 7.222656 9.070312 7.222656 8.957031 C 7.222656 8.933594 7.226562 8.910156 7.226562 8.886719 C 7.226562 8.808594 7.226562 8.730469 7.226562 8.652344 C 7.226562 8.625 7.226562 8.597656 7.226562 8.570312 C 7.226562 8.429688 7.226562 8.289062 7.226562 8.148438 C 7.226562 8.003906 7.230469 7.859375 7.230469 7.714844 C 7.230469 7.601562 7.230469 7.492188 7.230469 7.378906 C 7.230469 7.324219 7.230469 7.273438 7.234375 7.21875 C 7.234375 7.144531 7.234375 7.070312 7.234375 6.992188 C 7.234375 6.972656 7.234375 6.949219 7.234375 6.925781 C 7.234375 6.769531 7.191406 6.683594 7.09375 6.5625 C 6.921875 6.394531 6.734375 6.339844 6.5 6.328125 C 6.277344 6.335938 6.140625 6.402344 5.972656 6.546875 C 5.847656 6.695312 5.84375 6.761719 5.8125 6.96875 C 5.542969 6.96875 5.277344 6.96875 5 6.96875 C 5.046875 6.539062 5.148438 6.1875 5.492188 5.894531 C 6.035156 5.488281 6.734375 5.507812 7.34375 5.75 Z M 7.34375 5.75 "/>
<path style=" stroke:none;fill-rule:nonzero;fill:rgb(82.352942%,96.078432%,81.568629%);fill-opacity:1;" d="M 2.6875 2 C 2.640625 2.105469 2.585938 2.171875 2.503906 2.253906 C 2.480469 2.277344 2.457031 2.300781 2.433594 2.324219 C 2.410156 2.347656 2.382812 2.375 2.359375 2.398438 C 2.335938 2.421875 2.308594 2.449219 2.285156 2.472656 C 2.25 2.507812 2.25 2.507812 2.214844 2.542969 C 2.191406 2.566406 2.171875 2.585938 2.148438 2.609375 C 2.09375 2.65625 2.09375 2.65625 2.03125 2.65625 C 2.078125 2.550781 2.132812 2.484375 2.214844 2.402344 C 2.238281 2.378906 2.261719 2.355469 2.285156 2.332031 C 2.308594 2.308594 2.335938 2.28125 2.359375 2.257812 C 2.382812 2.234375 2.410156 2.207031 2.433594 2.183594 C 2.457031 2.160156 2.480469 2.136719 2.503906 2.113281 C 2.539062 2.078125 2.539062 2.078125 2.570312 2.046875 C 2.625 2 2.625 2 2.6875 2 Z M 2.6875 2 "/>
<path style=" stroke:none;fill-rule:nonzero;fill:rgb(25.098041%,32.156864%,21.568628%);fill-opacity:1;" d="M 5.5625 5.84375 C 5.582031 5.855469 5.605469 5.863281 5.625 5.875 C 5.511719 5.988281 5.398438 6.101562 5.28125 6.21875 C 5.28125 6.089844 5.351562 6.027344 5.4375 5.9375 C 5.507812 5.878906 5.507812 5.878906 5.5625 5.84375 Z M 5.5625 5.84375 "/>
<path style=" stroke:none;fill-rule:nonzero;fill:rgb(83.137256%,96.078432%,82.745099%);fill-opacity:1;" d="M 2.03125 13.34375 C 2.136719 13.390625 2.207031 13.445312 2.28125 13.53125 C 2.28125 13.550781 2.28125 13.574219 2.28125 13.59375 C 2.175781 13.546875 2.105469 13.492188 2.03125 13.40625 C 2.03125 13.386719 2.03125 13.363281 2.03125 13.34375 Z M 2.03125 13.34375 "/>
</g>
</svg>
