<?xml version="1.0" encoding="UTF-8"?>
<svg version="1.1" xmlns="http://www.w3.org/2000/svg" width="512" height="512">
<path d="M0 0 C1.63309093 -0.00417981 3.26617895 -0.00966086 4.89926165 -0.01631981 C9.35827209 -0.03070842 13.81709665 -0.0265504 18.27611697 -0.019153 C23.0962963 -0.01440722 27.91643623 -0.02694366 32.73660278 -0.03717041 C42.16887874 -0.05433651 51.60108802 -0.05520291 61.03337554 -0.04995751 C68.70316225 -0.04591028 76.3729293 -0.04736593 84.04271507 -0.05270576 C85.68234457 -0.0538284 85.68234457 -0.0538284 87.35509789 -0.05497371 C89.57596551 -0.05650525 91.79683314 -0.05804359 94.01770075 -0.05958868 C114.82887802 -0.07330595 135.64001767 -0.06788159 156.45119407 -0.05640347 C175.47132249 -0.04647324 194.4913536 -0.05940951 213.51146702 -0.08333766 C233.06227401 -0.10774727 252.61303572 -0.11733186 272.16385764 -0.11068493 C283.13174659 -0.10719668 294.09956073 -0.10939867 305.06743813 -0.12693596 C314.40469083 -0.14168127 323.74181605 -0.142263 333.07906631 -0.12486505 C337.83843908 -0.11637164 342.59758433 -0.11416479 347.35694504 -0.1295166 C351.7225472 -0.14342339 356.08772823 -0.13852421 360.4533064 -0.11927737 C362.02386249 -0.11553531 363.59445281 -0.11838696 365.16497824 -0.12888902 C385.88154904 -0.25745587 403.33778018 5.91590528 418.62419128 20.38768005 C423.83434634 25.72855585 427.53892735 31.67153485 430.93669128 38.26268005 C431.42528625 39.19769348 431.42528625 39.19769348 431.92375183 40.15159607 C437.3747468 51.2761624 438.06296219 62.58622921 438.01187134 74.76348877 C438.01605115 76.3965797 438.02153219 78.02966772 438.02819115 79.66275042 C438.04257976 84.12176085 438.03842174 88.58058542 438.03102434 93.03960574 C438.02627856 97.85978507 438.038815 102.679925 438.04904175 107.50009155 C438.06620785 116.93236751 438.06707425 126.36457679 438.06182884 135.79686431 C438.05778162 143.46665102 438.05923727 151.13641807 438.0645771 158.80620384 C438.06532552 159.89929017 438.06607395 160.9923765 438.06684505 162.11858666 C438.06837658 164.33945428 438.06991493 166.56032191 438.07146002 168.78118952 C438.08517729 189.59236679 438.07975293 210.40350644 438.0682748 231.21468284 C438.05834458 250.23481126 438.07128085 269.25484237 438.095209 288.27495579 C438.11961861 307.82576278 438.1292032 327.37652449 438.12255627 346.92734641 C438.11906802 357.89523536 438.12127001 368.8630495 438.1388073 379.8309269 C438.15355261 389.1681796 438.15413434 398.50530482 438.13673639 407.84255508 C438.12824298 412.60192785 438.12603613 417.3610731 438.14138794 422.12043381 C438.15529472 426.48603597 438.15039554 430.851217 438.1311487 435.21679517 C438.12740664 436.78735126 438.1302583 438.35794158 438.14076035 439.92846701 C438.27271023 461.19016003 431.7270297 478.93864477 416.62419128 494.38768005 C400.94936709 508.34471529 383.76415663 512.86143599 363.24838257 512.77536011 C361.61529164 512.77953992 359.98220362 512.78502096 358.34912091 512.79167992 C353.89011048 512.80606853 349.43128592 512.80191051 344.9722656 512.79451311 C340.15208627 512.78976733 335.33194634 512.80230377 330.51177979 512.81253052 C321.07950383 512.82969662 311.64729455 512.83056302 302.21500703 512.82531761 C294.54522032 512.82127039 286.87545327 512.82272604 279.2056675 512.82806587 C277.566038 512.82918851 277.566038 512.82918851 275.89328468 512.83033382 C273.67241705 512.83186535 271.45154943 512.8334037 269.23068181 512.83494879 C248.41950455 512.84866606 227.6083649 512.8432417 206.7971885 512.83176357 C187.77706008 512.82183335 168.75702896 512.83476962 149.73691555 512.85869776 C130.18610856 512.88310738 110.63534685 512.89269197 91.08452493 512.88604504 C80.11663598 512.88255679 69.14882184 512.88475878 58.18094444 512.90229607 C48.84369174 512.91704138 39.50656652 512.91762311 30.16931625 512.90022516 C25.40994349 512.89173174 20.65079824 512.8895249 15.89143753 512.90487671 C11.52583537 512.91878349 7.16065434 512.91388431 2.79507617 512.89463747 C1.22452008 512.89089541 -0.34607024 512.89374707 -1.91659568 512.90424912 C-23.17828869 513.036199 -40.92677344 506.49051847 -56.37580872 491.38768005 C-70.33284395 475.71285586 -74.84956465 458.5276454 -74.76348877 438.01187134 C-74.76766858 436.37878041 -74.77314963 434.74569239 -74.77980858 433.11260968 C-74.79419719 428.65359925 -74.79003917 424.19477469 -74.78264177 419.73575437 C-74.77789599 414.91557504 -74.79043243 410.0954351 -74.80065918 405.27526855 C-74.81782528 395.8429926 -74.81869168 386.41078332 -74.81344628 376.9784958 C-74.80939905 369.30870909 -74.8108547 361.63894204 -74.81619453 353.96915627 C-74.81694296 352.87606994 -74.81769138 351.78298361 -74.81846248 350.65677345 C-74.81999402 348.43590582 -74.82153236 346.2150382 -74.82307745 343.99417058 C-74.83679472 323.18299331 -74.83137036 302.37185367 -74.81989224 281.56067727 C-74.80996201 262.54054885 -74.82289828 243.52051773 -74.84682643 224.50040432 C-74.87123604 204.94959733 -74.88082063 185.39883562 -74.8741737 165.8480137 C-74.87068545 154.88012475 -74.87288744 143.91231061 -74.89042473 132.94443321 C-74.90517004 123.60718051 -74.90575177 114.27005529 -74.88835382 104.93280502 C-74.87986041 100.17343226 -74.87765356 95.41428701 -74.89300537 90.6549263 C-74.90691216 86.28932414 -74.90201297 81.92414311 -74.88276614 77.55856494 C-74.87902408 75.98800885 -74.88187573 74.41741853 -74.89237779 72.84689309 C-75.02094464 52.1303223 -68.84758349 34.67409116 -54.37580872 19.38768005 C-49.03493292 14.17752499 -43.09195392 10.47294399 -36.50080872 7.07518005 C-35.87746643 6.74945007 -35.25412415 6.42372009 -34.6118927 6.08811951 C-23.48732637 0.63712453 -12.17725956 -0.05109085 0 0 Z " fill="#0077B5" transform="translate(74.37580871582031,-0.3876800537109375)"/>
<path d="M0 0 C1.95292969 -0.01740234 1.95292969 -0.01740234 3.9453125 -0.03515625 C23.58259353 0.02375559 40.58744073 6.04827802 55 19.5 C75.22373662 40.65110373 78.50746164 71.93030824 78.53613281 99.84130859 C78.54109772 101.02335876 78.54606262 102.20540894 78.55117798 103.42327881 C78.56565281 107.29000449 78.5725729 111.15668931 78.578125 115.0234375 C78.58086586 116.36432545 78.58372265 117.70521316 78.58669281 119.04610062 C78.60030881 125.33690527 78.61000953 131.62769722 78.6138947 137.91851556 C78.6183902 145.15398169 78.63603146 152.38926032 78.6648953 159.62466943 C78.68652077 165.24194768 78.6965991 170.8591731 78.69793582 176.47649252 C78.69898131 179.82227417 78.70629484 183.16773706 78.72275543 186.51350021 C78.73978637 190.23749925 78.73794386 193.96103655 78.73144531 197.68505859 C78.7406601 198.7854245 78.74987488 199.88579041 78.7593689 201.01950073 C78.70517089 210.92097733 78.70517089 210.92097733 75.375 215.375 C71.89635988 217.39084665 68.80993934 217.63368196 64.83789062 217.66552734 C63.75326538 217.67828705 62.66864014 217.69104675 61.55114746 217.70419312 C59.80879822 217.70753159 59.80879822 217.70753159 58.03125 217.7109375 C56.22847595 217.7209227 56.22847595 217.7209227 54.38928223 217.73110962 C51.85084563 217.74122464 49.31238251 217.745927 46.77392578 217.74560547 C42.88920451 217.74998399 39.0056145 217.78633299 35.12109375 217.82421875 C32.65364972 217.83008599 30.18620029 217.834056 27.71875 217.8359375 C26.55718384 217.85030853 25.39561768 217.86467957 24.19885254 217.87948608 C16.14835921 217.8338143 16.14835921 217.8338143 12.16601562 215.47119141 C9.55629155 212.4167897 9.24964381 210.77726151 9.24369812 206.84507751 C9.23768585 205.41374229 9.23768585 205.41374229 9.23155212 203.95349121 C9.2323452 202.37731018 9.2323452 202.37731018 9.2331543 200.76928711 C9.22967987 199.66488785 9.22620544 198.56048859 9.22262573 197.42262268 C9.21525643 195.0152277 9.20991733 192.60782588 9.20633507 190.20042229 C9.19917159 186.37717576 9.18350106 182.55405773 9.16499329 178.73085022 C9.11255184 167.85663828 9.06421742 156.98249047 9.04907227 146.1081543 C9.03971757 139.45968752 9.00941792 132.81150349 8.96775246 126.16314888 C8.95552195 123.64012631 8.95030649 121.11705871 8.95255089 118.59400749 C9.29260279 90.67027842 9.29260279 90.67027842 -3.28515625 66.546875 C-9.7497871 60.47984103 -16.95152248 58.86678959 -25.625 59 C-26.38039063 58.98839844 -27.13578125 58.97679687 -27.9140625 58.96484375 C-36.88908414 59.01110675 -44.12032926 62.22228539 -50.625 68.375 C-56.72727681 75.23540081 -59.405178 82.56731916 -61.625 91.375 C-61.80227725 91.9961072 -61.9795545 92.61721439 -62.16220379 93.25714302 C-62.6767288 95.61172233 -62.75264762 97.73347652 -62.75630188 100.14352417 C-62.76031006 101.09956543 -62.76431824 102.05560669 -62.76844788 103.0406189 C-62.76791916 104.08279572 -62.76739044 105.12497253 -62.7668457 106.19873047 C-62.77205734 107.85301056 -62.77205734 107.85301056 -62.77737427 109.54071045 C-62.78472665 111.93608979 -62.79007479 114.33147593 -62.79366493 116.72686386 C-62.80082974 120.51784548 -62.81649594 124.30869763 -62.83500671 128.09963989 C-62.88748053 138.87842494 -62.93590173 149.65712637 -62.95092773 160.43603516 C-62.96021187 167.0284058 -62.99031002 173.6204856 -63.03224754 180.21274185 C-63.04456875 182.72531797 -63.04967677 185.23794016 -63.04744911 187.7505455 C-63.04509968 191.26487915 -63.06723656 194.77827362 -63.0949707 198.29248047 C-63.08506859 199.849673 -63.08506859 199.849673 -63.07496643 201.43832397 C-63.14985255 207.21459673 -63.55812749 210.91284714 -67.625 215.375 C-70.66604527 217.52612731 -73.28360771 217.63961289 -76.95678711 217.68139648 C-78.02146713 217.69738388 -79.08614716 217.71337128 -80.18309021 217.72984314 C-81.32794388 217.73520584 -82.47279755 217.74056854 -83.65234375 217.74609375 C-84.83341202 217.75512222 -86.01448029 217.7641507 -87.2313385 217.77345276 C-89.72866275 217.78795752 -92.22602503 217.79684255 -94.72338867 217.80053711 C-98.54475766 217.81244471 -102.36451811 217.86164156 -106.18554688 217.91210938 C-108.61197128 217.92157222 -111.03840561 217.92880792 -113.46484375 217.93359375 C-114.60767319 217.95312607 -115.75050262 217.97265839 -116.92796326 217.99278259 C-125.75259134 217.94255589 -125.75259134 217.94255589 -128.82250977 214.90258789 C-129.71474243 213.65143188 -129.71474243 213.65143188 -130.625 212.375 C-130.955 212.045 -131.285 211.715 -131.625 211.375 C-131.73166004 208.78139847 -131.77278452 206.21410589 -131.77217102 203.61968994 C-131.77584771 202.79748577 -131.7795244 201.9752816 -131.7833125 201.12816215 C-131.79439476 198.35138578 -131.79820084 195.57464678 -131.80200195 192.79785156 C-131.8082632 190.81569295 -131.8149097 188.83353552 -131.82191467 186.85137939 C-131.83935659 181.45045278 -131.8498852 176.04953505 -131.8581202 170.64858723 C-131.86326378 167.27707323 -131.86933981 163.90556202 -131.87563133 160.53404999 C-131.89469263 149.9936153 -131.90892154 139.45318766 -131.9172433 128.91273904 C-131.92701902 116.73042783 -131.95334341 104.54829817 -131.99374419 92.36605096 C-132.02386985 82.96050873 -132.03870882 73.55501864 -132.04202431 64.14942908 C-132.04437896 58.52709143 -132.05339305 52.9049475 -132.07848549 47.28266144 C-132.10170896 41.99345838 -132.1060225 36.70457737 -132.09572411 31.41533661 C-132.09522723 29.47268098 -132.10159214 27.53000981 -132.11528015 25.58740234 C-132.13291014 22.93729406 -132.1259371 20.28835268 -132.11274719 17.63824463 C-132.12371644 16.8675194 -132.13468568 16.09679417 -132.14598733 15.30271363 C-132.08669201 10.37587833 -131.15609589 7.82438381 -127.625 4.375 C-125.06481964 3.09490982 -123.2033472 3.21992877 -120.33666992 3.18212891 C-119.23179733 3.16606598 -118.12692474 3.15000305 -116.98857117 3.13345337 C-111.93338576 3.08907965 -106.87833255 3.04794199 -101.82299805 3.02490234 C-99.15408439 3.01156713 -96.48697813 2.98104198 -93.81811523 2.94287109 C-89.97616487 2.88818649 -86.13525556 2.86624013 -82.29296875 2.8515625 C-81.10011765 2.82889313 -79.90726654 2.80622375 -78.67826843 2.78286743 C-69.46406379 2.80643392 -69.46406379 2.80643392 -66.39575195 5.78271484 C-63.4017611 10.16575563 -63.31948807 13.80968364 -63.0625 19 C-63.01931641 19.80179688 -62.97613281 20.60359375 -62.93164062 21.4296875 C-62.82548543 23.4112511 -62.72473145 25.39310271 -62.625 27.375 C-62.18671875 26.75753906 -61.7484375 26.14007813 -61.296875 25.50390625 C-50.10716376 10.56154795 -35.75887388 3.64779672 -17.66995239 0.65460205 C-11.8060041 -0.1471633 -5.90493953 -0.05293272 0 0 Z " fill="#FEFEFE" transform="translate(336.625,198.625)"/>
<path d="M0 0 C1.08492737 -0.01283524 2.16985474 -0.02567047 3.28765869 -0.03889465 C5.06097565 -0.04997505 5.06097565 -0.04997505 6.87011719 -0.0612793 C8.07762634 -0.06935104 9.2851355 -0.07742279 10.52923584 -0.08573914 C13.09157872 -0.09960132 15.65394024 -0.11031387 18.21630859 -0.11816406 C22.13642432 -0.13536393 26.05569429 -0.1792313 29.97558594 -0.22338867 C32.4612568 -0.23351607 34.94693485 -0.24203203 37.43261719 -0.2487793 C38.60673157 -0.26628738 39.78084595 -0.28379547 40.99053955 -0.30183411 C49.10499068 -0.28020441 49.10499068 -0.28020441 53.07226562 1.95361328 C56.87017813 6.53111317 57.2085528 10.24468963 57.18441772 16.08979797 C57.18894884 16.89273653 57.19347995 17.69567508 57.19814837 18.52294511 C57.21082071 21.21668968 57.20917017 23.9102328 57.20751953 26.60400391 C57.21350305 28.53410096 57.22030818 30.46419561 57.22787476 32.39428711 C57.24556079 37.64023349 57.25023126 42.88611464 57.25150633 48.13208795 C57.25340462 52.51078424 57.26076142 56.88946531 57.26785052 61.26815575 C57.28414227 71.59935125 57.28901878 81.93051189 57.28759766 92.26171875 C57.28639627 102.91926207 57.30749582 113.57660285 57.33908498 124.23409492 C57.36523718 133.38326353 57.37596538 142.53236596 57.37468684 151.68157166 C57.37417686 157.14630542 57.37987986 162.61085927 57.40104294 168.0755558 C57.42040723 173.21626279 57.42056206 178.35661794 57.40600967 183.49733734 C57.40391818 185.38271028 57.40864272 187.26810513 57.42073059 189.15344048 C57.43618122 191.73045843 57.4268766 194.30626294 57.41146851 196.883255 C57.42175563 197.62665345 57.43204276 198.3700519 57.44264162 199.13597757 C57.36987016 204.65618434 55.98027788 207.74160314 52.91699219 212.17700195 C49.52864362 214.16114657 46.55385362 214.43721862 42.67114258 214.48339844 C41.13913963 214.50737953 41.13913963 214.50737953 39.57618713 214.53184509 C38.48337936 214.53720779 37.39057159 214.5425705 36.26464844 214.5480957 C35.13175888 214.55712418 33.99886932 214.56615265 32.83164978 214.57545471 C30.43865599 214.58994497 28.04562269 214.5988409 25.65258789 214.60253906 C21.99590347 214.6144485 18.34089948 214.66366053 14.68457031 214.71411133 C12.35710457 214.7235744 10.02962849 214.73080999 7.70214844 214.7355957 C6.6113649 214.75512802 5.52058136 214.77466034 4.39674377 214.79478455 C-4.07103756 214.74454979 -4.07103756 214.74454979 -7.75708008 211.82958984 C-11.51432352 207.54466804 -11.2333844 203.67980558 -11.23690796 198.2571106 C-11.24129021 197.44136468 -11.24567247 196.62561876 -11.25018752 195.78515327 C-11.26357923 193.04223202 -11.26975515 190.29934291 -11.27587891 187.55639648 C-11.28377941 185.59364679 -11.29204833 183.63089856 -11.30065918 181.66815186 C-11.32687938 175.21538684 -11.34218413 168.76261532 -11.35644531 162.30981445 C-11.36180448 160.09009675 -11.36718199 157.87037909 -11.37257767 155.65066147 C-11.39420398 146.42024104 -11.41294245 137.18982236 -11.42420006 127.95938301 C-11.44045183 114.72046668 -11.47366238 101.48184324 -11.53060091 88.24303734 C-11.56925482 78.93936628 -11.5888272 69.63577373 -11.59412062 60.33202446 C-11.59777954 54.7722636 -11.60985872 49.21281515 -11.64222336 43.65314102 C-11.6722248 38.42459861 -11.67864411 33.19655895 -11.6668396 27.96794891 C-11.66661822 26.04785924 -11.67497637 24.12774675 -11.69249344 22.20773697 C-11.71509432 19.58816842 -11.7069333 16.97043707 -11.69100952 14.3508606 C-11.70489161 13.5892815 -11.7187737 12.82770241 -11.73307645 12.04304516 C-11.6725392 8.00729627 -11.24171283 6.36602255 -8.60750771 3.22863579 C-7.77442274 2.55159662 -6.94133778 1.87455746 -6.08300781 1.17700195 C-4.4004399 -0.50556596 -2.30814601 0.02367435 0 0 Z " fill="#FDFEFE" transform="translate(118.0830078125,201.822998046875)"/>
<path d="M0 0 C6.2206037 4.99149498 10.79017919 10.7017578 14 18 C14.38623535 18.85887817 14.38623535 18.85887817 14.78027344 19.73510742 C16.95220736 24.93961376 17.54591865 29.57222253 17.5 35.1875 C17.49355469 36.01757568 17.48710937 36.84765137 17.48046875 37.70288086 C17.1259904 49.75631097 12.52336973 59.49160983 4 68 C-6.01651161 76.78345032 -17.08908197 79.87440149 -30.234375 79.31640625 C-41.23846036 78.39178912 -51.61654124 73.47679926 -59.265625 65.390625 C-67.65613313 53.82533001 -71.08832142 42.25547779 -70 28 C-67.31934043 16.20509789 -60.77690203 6.06896781 -51 -1 C-34.47138652 -11.07092263 -16.31541577 -10.16726309 0 0 Z " fill="#FDFEFE" transform="translate(167,104)"/>
</svg>
