<?xml version="1.0" encoding="UTF-8"?>
<svg version="1.1" xmlns="http://www.w3.org/2000/svg" width="512" height="512">
<path d="M0 0 C2.52465007 1.3387297 5.0958752 2.56362573 7.68212891 3.77832031 C11.7458501 5.78916166 15.13943481 8.28936842 18.65087891 11.14550781 C21.35598079 13.3324246 24.1355921 15.39724798 26.93212891 17.46582031 C31.91194344 21.1816258 36.72835056 25.05335959 41.48681641 29.04785156 C44.02019732 31.140539 44.02019732 31.140539 46.83447266 32.82519531 C51.27444219 35.94662844 54.93451997 39.67876245 58.74462891 43.52832031 C59.50324219 44.27919922 60.26185547 45.03007813 61.04345703 45.80371094 C61.77371094 46.53654297 62.50396484 47.269375 63.25634766 48.02441406 C63.91465576 48.68497803 64.57296387 49.34554199 65.2512207 50.02612305 C67.1899564 52.24268216 68.58666829 54.54570134 70.05712891 57.09082031 C71.19257657 58.38962248 72.3615671 59.65963207 73.55712891 60.90332031 C77.98120925 65.75342321 81.58335752 71.04544111 85.19970703 76.50610352 C87.58288738 80.07697144 89.96064578 83.09274237 93.05712891 86.09082031 C98.24528656 93.44546138 102.0869453 101.77413 105.98193359 109.86621094 C106.6956468 111.34290366 107.41760344 112.81564198 108.14794922 114.28417969 C138.34449457 175.21124996 138.85280462 248.01576245 118.22900391 311.84472656 C115.16882519 320.91002004 111.25685256 329.50650301 107.05712891 338.09082031 C106.36785288 339.53460456 105.67903822 340.97860917 104.99072266 342.42285156 C94.96705569 363.19590288 94.96705569 363.19590288 87.05712891 371.09082031 C85.45911239 373.28222811 83.90301968 375.48067242 82.36962891 377.71582031 C78.58115853 383.14726063 74.54975274 388.10852639 69.96728516 392.90722656 C67.99772512 395.01759368 67.99772512 395.01759368 66.67749023 397.47094727 C65.06447009 400.07895076 63.38076011 402.02548466 61.22119141 404.19238281 C60.48642578 404.92972656 59.75166016 405.66707031 58.99462891 406.42675781 C58.23150391 407.18214844 57.46837891 407.93753906 56.68212891 408.71582031 C55.92673828 409.47894531 55.17134766 410.24207031 54.39306641 411.02832031 C53.65572266 411.76308594 52.91837891 412.49785156 52.15869141 413.25488281 C51.4917627 413.91955566 50.82483398 414.58422852 50.13769531 415.26904297 C47.91315742 417.21688406 45.61149863 418.61187951 43.05712891 420.09082031 C41.15738256 421.62313721 39.28401501 423.18849356 37.43212891 424.77832031 C31.84311166 429.51434996 26.05118731 433.87600088 20.05712891 438.09082031 C19.34451904 438.61224609 18.63190918 439.13367188 17.89770508 439.67089844 C11.73422743 444.11608434 5.38446358 447.76779087 -1.38037109 451.21582031 C-2.34007812 451.7146875 -3.29978516 452.21355469 -4.28857422 452.72753906 C-33.09392545 467.58605694 -63.80613803 476.26896388 -95.94287109 480.09082031 C-96.74072021 480.19322021 -97.53856934 480.29562012 -98.3605957 480.40112305 C-149.60334023 486.39137351 -202.8223723 474.53655915 -247.88574219 450.18164062 C-250.41039225 448.84291092 -252.98161739 447.6180149 -255.56787109 446.40332031 C-259.62984119 444.39334545 -263.02224195 441.89423308 -266.53271484 439.04003906 C-269.2611954 436.83337489 -272.06236978 434.74432767 -274.88037109 432.65332031 C-279.46310433 429.22937223 -283.95923986 425.72111594 -288.39599609 422.11035156 C-289.81950397 420.98158842 -291.25438348 419.86568046 -292.72680664 418.80151367 C-298.03062425 414.95665189 -302.65346965 410.68236795 -307.25537109 406.02832031 C-308.30821289 404.98708008 -308.30821289 404.98708008 -309.38232422 403.92480469 C-312.79539608 400.49871825 -315.59103421 397.34935146 -317.94287109 393.09082031 C-319.07831876 391.79201815 -320.24730928 390.52200855 -321.44287109 389.27832031 C-325.86695144 384.42821741 -329.46909971 379.13619951 -333.08544922 373.67553711 C-335.46862956 370.10466918 -337.84638797 367.08889825 -340.94287109 364.09082031 C-346.13102875 356.73617924 -349.97268749 348.40751063 -353.86767578 340.31542969 C-354.58138899 338.83873696 -355.30334563 337.36599864 -356.03369141 335.89746094 C-386.23023675 274.97039066 -386.73854681 202.16587818 -366.11474609 138.33691406 C-363.05456738 129.27162058 -359.14259474 120.67513762 -354.94287109 112.09082031 C-354.25359506 110.64703607 -353.56478041 109.20303145 -352.87646484 107.75878906 C-342.85279788 86.98573775 -342.85279788 86.98573775 -334.94287109 79.09082031 C-333.34485457 76.89941251 -331.78876187 74.7009682 -330.25537109 72.46582031 C-326.46690072 67.03438 -322.43549493 62.07311424 -317.85302734 57.27441406 C-315.8834673 55.16404694 -315.8834673 55.16404694 -314.56323242 52.71069336 C-312.95021227 50.10268986 -311.2665023 48.15615596 -309.10693359 45.98925781 C-308.37216797 45.25191406 -307.63740234 44.51457031 -306.88037109 43.75488281 C-306.11724609 42.99949219 -305.35412109 42.24410156 -304.56787109 41.46582031 C-303.81248047 40.70269531 -303.05708984 39.93957031 -302.27880859 39.15332031 C-301.54146484 38.41855469 -300.80412109 37.68378906 -300.04443359 36.92675781 C-299.37750488 36.26208496 -298.71057617 35.59741211 -298.0234375 34.91259766 C-295.79889961 32.96475657 -293.49724082 31.56976112 -290.94287109 30.09082031 C-289.04312475 28.55850342 -287.1697572 26.99314706 -285.31787109 25.40332031 C-279.72885385 20.66729067 -273.9369295 16.30563974 -267.94287109 12.09082031 C-267.23026123 11.56939453 -266.51765137 11.04796875 -265.78344727 10.51074219 C-259.61996961 6.06555628 -253.27020576 2.41384976 -246.50537109 -1.03417969 C-245.54566406 -1.53304688 -244.58595703 -2.03191406 -243.59716797 -2.54589844 C-214.79181674 -17.40441631 -184.07960415 -26.08732326 -151.94287109 -29.90917969 C-151.14502197 -30.01157959 -150.34717285 -30.11397949 -149.52514648 -30.21948242 C-98.28240195 -36.20973289 -45.06336989 -24.35491852 0 0 Z " fill="#C8F1C6" transform="translate(379.94287109375,30.9091796875)"/>
<path d="M0 0 C1.32717041 0.01123901 1.32717041 0.01123901 2.68115234 0.02270508 C16.90110218 0.25747459 28.65828419 4.20435897 39.125 14.25 C46.63992276 23.65185752 49.125 31.21357277 49.125 43.25 C40.875 43.25 32.625 43.25 24.125 43.25 C23.135 38.795 23.135 38.795 22.125 34.25 C18.51302861 28.26767239 13.8520442 25.91307482 7.125 24.25 C-0.55611728 23.26985743 -7.32187471 23.92601159 -13.875 28.25 C-18.3918327 31.99188591 -20.0231545 36.59011787 -20.875 42.25 C-21.18459468 47.42424524 -21.20572888 52.59209999 -21.2109375 57.7734375 C-21.21737689 59.28504559 -21.22410607 60.79665247 -21.23110962 62.30825806 C-21.24303781 65.46692797 -21.24679499 68.62548887 -21.24560547 71.78417969 C-21.24540235 75.80765616 -21.27271658 79.83042579 -21.30714989 83.85373497 C-21.32951637 86.97324764 -21.33344008 90.09259267 -21.33238602 93.21217728 C-21.33472687 94.69437727 -21.34346373 96.17658297 -21.35905075 97.65870285 C-21.4393418 106.08015076 -21.25888926 113.79116559 -16.875 121.25 C-14.53669042 123.7904226 -14.53669042 123.7904226 -11.875 125.25 C-11.33359375 125.60320312 -10.7921875 125.95640625 -10.234375 126.3203125 C-6.75504134 127.69130821 -3.31225002 127.63137864 0.375 127.625 C1.13627197 127.62628906 1.89754395 127.62757813 2.68188477 127.62890625 C8.46671148 127.51965316 12.2260242 126.44933113 17.125 123.25 C17.785 123.25 18.445 123.25 19.125 123.25 C21.76096117 118.16636059 23.16866138 113.98803173 24.125 108.25 C32.705 108.25 41.285 108.25 50.125 108.25 C50.125 121.87948458 46.58632961 129.14253743 37.625 139 C36.8 139.7425 35.975 140.485 35.125 141.25 C34.69574219 141.72953125 34.26648438 142.2090625 33.82421875 142.703125 C26.33897815 150.36244096 14.76989118 152.43140031 4.46923828 152.7421875 C-10.05052083 152.78591348 -23.88987762 150.2504146 -34.75 139.8125 C-46.79042103 126.70630007 -48.19335042 112.84417992 -48.17578125 95.7265625 C-48.17967811 94.13292328 -48.18401478 92.53928509 -48.18876648 90.94564819 C-48.1961901 87.61900453 -48.19596566 84.29246706 -48.19067383 80.96582031 C-48.18488476 76.73421297 -48.20181534 72.50304413 -48.2250185 68.27150917 C-48.23985672 64.98379031 -48.24061393 61.69617462 -48.23750877 58.40842819 C-48.23801695 56.84974678 -48.24315826 55.2910588 -48.25332069 53.73241043 C-48.34539744 37.63834583 -45.96823997 24.6734162 -34.75 12.5 C-25.00959325 3.21951128 -13.1289499 -0.14604365 0 0 Z " fill="#28361D" transform="translate(311.875,180.75)"/>
<path d="M0 0 C0 0.66 0 1.32 0 2 C0.99 2.2784375 0.99 2.2784375 2 2.5625 C10.31932491 6.54884319 16.47934069 13.95435618 20 22.3984375 C22.16432695 28.66249917 23.12480921 34.43106862 23.16113281 41.07836914 C23.16858017 42.11856705 23.16858017 42.11856705 23.17617798 43.17977905 C23.19073208 45.46491508 23.19759244 47.74998155 23.203125 50.03515625 C23.20736607 51.21387708 23.20736607 51.21387708 23.21169281 52.41641045 C23.22666291 56.57993783 23.23590445 60.7434308 23.24023438 64.90698242 C23.24569699 69.17793924 23.26968417 73.4485737 23.29820633 77.71942997 C23.31697019 81.02858858 23.32204569 84.33767192 23.32357025 87.6468792 C23.32656949 89.21952502 23.33450398 90.79217041 23.34775543 92.36476326 C23.48067537 109.36025414 20.75378842 122.04878727 9.31640625 134.8984375 C6.94198983 137.0526298 5.02979064 138.02747461 2 139 C2 139.66 2 140.32 2 141 C-12.19999298 147.24799691 -29.43711812 150.13479133 -44.625 145.375 C-59.69679167 139.29526457 -67.02068619 130.61839889 -73.3125 115.9375 C-74 113 -74 113 -74 104 C-65.75 104 -57.5 104 -49 104 C-48.34 106.64 -47.68 109.28 -47 112 C-44.62122976 117.31163154 -40.9706668 120.27361042 -35.5859375 122.33984375 C-27.04435102 124.52039981 -18.605009 123.49386895 -11 119 C-8.52001256 116.48937149 -8.52001256 116.48937149 -7 114 C-6.34 113.67 -5.68 113.34 -5 113 C-3.82341396 109.47024189 -3.83692803 106.26824078 -3.82299805 102.59448242 C-3.81642685 101.84290359 -3.80985565 101.09132477 -3.80308533 100.31697083 C-3.78337532 97.82980243 -3.77169513 95.34269434 -3.76171875 92.85546875 C-3.75764322 92.00516901 -3.7535677 91.15486927 -3.74936867 90.27880287 C-3.72851812 85.77856312 -3.71421179 81.27835377 -3.70483398 76.77807617 C-3.69376921 72.13422236 -3.65936585 67.49084766 -3.61966228 62.8471632 C-3.593497 59.27231465 -3.58514226 55.69758031 -3.58155251 52.12264442 C-3.57668662 50.4110522 -3.56507252 48.69946507 -3.54651451 46.98796654 C-3.52212323 44.58949338 -3.5230875 42.19226081 -3.5300293 39.79370117 C-3.51721924 39.09062836 -3.50440918 38.38755554 -3.49121094 37.66317749 C-3.54385842 32.65746691 -4.90946135 29.87861338 -8 26 C-13.50409165 20.64879978 -19.51002799 18.83640818 -27 18.5625 C-34.16847157 18.76137311 -38.53243365 20.85429013 -43.875 25.5 C-47.93051468 30.27119375 -48.04872544 32.3410781 -49 39 C-57.58 39 -66.16 39 -75 39 C-73.46573522 25.19161695 -70.24865192 13.97875051 -59.3125 4.625 C-41.84303428 -8.38360827 -19.47840695 -7.71422057 0 0 Z " fill="#27351C" transform="translate(235,184)"/>
<path d="M0 0 C-1.45241736 3.33234574 -3.2850086 5.54225606 -5.84375 8.109375 C-6.59527344 8.86347656 -7.34679687 9.61757812 -8.12109375 10.39453125 C-8.90613281 11.17183594 -9.69117187 11.94914062 -10.5 12.75 C-11.28503906 13.54277344 -12.07007812 14.33554688 -12.87890625 15.15234375 C-14.00619141 16.27576172 -14.00619141 16.27576172 -15.15625 17.421875 C-15.84525391 18.10862305 -16.53425781 18.79537109 -17.24414062 19.50292969 C-19 21 -19 21 -21 21 C-19.54758264 17.66765426 -17.7149914 15.45774394 -15.15625 12.890625 C-14.40472656 12.13652344 -13.65320313 11.38242188 -12.87890625 10.60546875 C-12.09386719 9.82816406 -11.30882813 9.05085938 -10.5 8.25 C-9.71496094 7.45722656 -8.92992188 6.66445312 -8.12109375 5.84765625 C-7.36957031 5.09871094 -6.61804688 4.34976563 -5.84375 3.578125 C-4.81024414 2.54800293 -4.81024414 2.54800293 -3.75585938 1.49707031 C-2 0 -2 0 0 0 Z " fill="#D2F5D0" transform="translate(86,64)"/>
<path d="M0 0 C0.66 0.33 1.32 0.66 2 1 C-1.63 4.63 -5.26 8.26 -9 12 C-9 7.8407692 -6.75316432 5.85455565 -4 3 C-1.6875 1.125 -1.6875 1.125 0 0 Z " fill="#405237" transform="translate(178,187)"/>
<path d="M0 0 C3.36179774 1.44077046 5.59156268 3.24750021 8 6 C8 6.66 8 7.32 8 8 C4.63820226 6.55922954 2.40843732 4.75249979 0 2 C0 1.34 0 0.68 0 0 Z " fill="#D4F5D3" transform="translate(65,427)"/>
</svg>
